Tilt-Monument.ufo
<glyph name="exclam" format="2">
  <advance width="289"/>
  <unicode hex="0021"/>
  <outline>
    <contour>
      <point x="91" y="257" type="line" name="OYDAZZNX"/>
      <point x="78" y="577" name="JLMCDYKS"/>
      <point x="70" y="614" name="MDHVZQUS"/>
      <point x="51" y="680" type="curve" name="UUBBKEHT"/>
      <point x="238" y="680" type="line" name="FEEGCBME"/>
      <point x="219" y="614" name="TNDHLIGH"/>
      <point x="211" y="577" name="JILCHBBH"/>
      <point x="198" y="257" type="curve" name="QOXJXDAT"/>
    </contour>
    <contour>
      <point x="64" y="0" type="line" name="ZESEBWPC"/>
      <point x="225" y="0" type="line" name="XILEFSLX"/>
      <point x="225" y="161" type="line" name="OOLRDEMH"/>
      <point x="64" y="161" type="line" name="WPQYCJKS"/>
    </contour>
    <contour>
      <point x="64" y="161" type="move" name="KFGIGMOD"/>
      <point x="144" y="81" type="line" name="PHPTNCMS"/>
      <point x="225" y="0" type="line" name="JYLHONKL"/>
    </contour>
    <contour>
      <point x="64" y="0" type="move" name="GMKLNRTI"/>
      <point x="144" y="81" type="line" name="BGIAKFXI"/>
      <point x="225" y="161" type="line" name="DUAAOXAS"/>
    </contour>
    <contour>
      <point x="144.0" y="303.0" type="move" name="INZNHOIJ"/>
      <point x="144.0" y="618.0" type="line" name="IRHJFHBZ"/>
    </contour>
    <contour>
      <point x="198.0" y="257.0" type="move" name="JRLMZRMB"/>
      <point x="144.0" y="303.0" type="line" name="VWUMAPUP"/>
      <point x="91.0" y="257.0" type="line" name="XJBUXPFQ"/>
    </contour>
    <contour>
      <point x="51.0" y="680.0" type="move" name="ECUUNSVW"/>
      <point x="144.0" y="618.0" type="line" name="WZGBHWZC"/>
      <point x="238.0" y="680.0" type="line" name="SFLOLYUF"/>
    </contour>
  </outline>
</glyph>
<glyph name="quotedbl" format="2">
  <advance width="518"/>
  <unicode hex="0022"/>
  <outline>
    <contour>
      <point x="98.0" y="398.0" type="line"/>
      <point x="64.0" y="680.0" type="line"/>
      <point x="233.0" y="680.0" type="line"/>
      <point x="199.0" y="398.0" type="line"/>
    </contour>
    <contour>
      <point x="319.0" y="398.0" type="line"/>
      <point x="285.0" y="680.0" type="line"/>
      <point x="454.0" y="680.0" type="line"/>
      <point x="420.0" y="398.0" type="line"/>
    </contour>
  </outline>
</glyph>
<glyph name="percent" format="2">
  <advance width="1023"/>
  <unicode hex="0025"/>
  <outline>
    <contour>
      <point x="784" y="94" type="curve" smooth="yes" name="MSFKSKOP"/>
      <point x="828.0" y="94.0" name="CIMHWKSQ"/>
      <point x="855.0" y="136.9885057471264" name="JPOQANLN"/>
      <point x="855" y="204.0" type="curve" smooth="yes" name="RDWQAWZG"/>
      <point x="855.0" y="271.1744186046511" name="IKJETUJQ"/>
      <point x="828.0" y="313.0" name="DZFIBWCI"/>
      <point x="784" y="313" type="curve" smooth="yes" name="HPYLOHVK"/>
      <point x="740.0" y="313.0" name="QKKVMTOQ"/>
      <point x="715.0" y="271.1744186046511" name="ZXCQYKGE"/>
      <point x="715" y="204.0" type="curve" smooth="yes" name="YALIRFMD"/>
      <point x="715.0" y="136.9885057471264" name="ZCCVZLSJ"/>
      <point x="740.0" y="94.0" name="GYLVZNKV"/>
    </contour>
    <contour>
      <point x="784.0" y="-14.0" type="curve" smooth="yes" name="THCZGZFH"/>
      <point x="668.9313725490197" y="-14.0" name="IQUWCWES"/>
      <point x="590.0" y="80.0" name="RDJLGYFO"/>
      <point x="590.0" y="204" type="curve" smooth="yes" name="FVHIUQVY"/>
      <point x="590.0" y="327.0" name="DPNGXCIY"/>
      <point x="668.9313725490197" y="420.0" name="MQHOBBJK"/>
      <point x="784.0" y="420.0" type="curve" smooth="yes" name="UUSJLBVF"/>
      <point x="899.0686274509803" y="420.0" name="JZEOWSLK"/>
      <point x="978.0" y="327.0" name="BYJXJADW"/>
      <point x="978.0" y="204" type="curve" smooth="yes" name="BTNKYMHS"/>
      <point x="978.0" y="80.0" name="PNHVJMEX"/>
      <point x="899.0686274509803" y="-14.0" name="BWFLEURP"/>
    </contour>
    <contour>
      <point x="239.0" y="368.0" type="curve" smooth="yes" name="LXVYMRGF"/>
      <point x="283.0" y="368.0" name="NBCLKEPC"/>
      <point x="310.0" y="411.1775700934579" name="IULYNBBL"/>
      <point x="310.0" y="478.0" type="curve" smooth="yes" name="EPLQHUUK"/>
      <point x="310.0" y="544.8396226415094" name="CXHKLVHG"/>
      <point x="283.0" y="587.0" name="TZUQKYAD"/>
      <point x="239.0" y="587.0" type="curve" smooth="yes" name="KRAJFKFA"/>
      <point x="195.0" y="587.0" name="XKIIVEVZ"/>
      <point x="170.0" y="544.8396226415094" name="QQEVPAZG"/>
      <point x="170.0" y="478.0" type="curve" smooth="yes" name="YOCVQFZZ"/>
      <point x="170.0" y="411.1775700934579" name="ITOLJNDG"/>
      <point x="195.0" y="368.0" name="SHLJQRHC"/>
    </contour>
    <contour>
      <point x="239.0" y="260.0" type="curve" smooth="yes" name="MQDLLIAQ"/>
      <point x="124" y="260.0" name="DZCVZIRF"/>
      <point x="45.0" y="354.0" name="SWERFMPM"/>
      <point x="45.0" y="478.0" type="curve" smooth="yes" name="LVAGMPGK"/>
      <point x="45.0" y="601.0" name="OAZEYJPT"/>
      <point x="124" y="694.0" name="CUWPIUYJ"/>
      <point x="239.0" y="694.0" type="curve" smooth="yes" name="XCIEKHFF"/>
      <point x="354" y="694.0" name="FNJARTXM"/>
      <point x="433.0" y="601.0" name="EBPDOSDY"/>
      <point x="433.0" y="478.0" type="curve" smooth="yes" name="YVYXQCLO"/>
      <point x="433.0" y="354.0" name="ZRDLINEN"/>
      <point x="354" y="260.0" name="QWEPAPZE"/>
    </contour>
    <contour>
      <point x="239" y="314" type="curve" smooth="yes" name="KUGBPQBW"/>
      <point x="160" y="314" name="KJGDDUFS"/>
      <point x="108" y="382" name="YKURJUKD"/>
      <point x="108" y="478" type="curve" smooth="yes" name="EWBMYSLZ"/>
      <point x="108" y="573" name="ZQOQVBZL"/>
      <point x="160" y="640" name="GPWFMEMA"/>
      <point x="239" y="640" type="curve" smooth="yes" name="LRYHTYPC"/>
      <point x="318" y="640" name="UVBVNCVO"/>
      <point x="372" y="573" name="TGORLLIL"/>
      <point x="372" y="478" type="curve" smooth="yes" name="FAZWTZFU"/>
      <point x="372" y="382" name="HNTKSDLP"/>
      <point x="318" y="314" name="MQSPLMXH"/>
    </contour>
    <contour>
      <point x="784" y="40" type="curve" smooth="yes" name="CUDEBJSK"/>
      <point x="704" y="40" name="HVNHBCOL"/>
      <point x="652" y="108" name="ZTCBRFIR"/>
      <point x="652" y="204" type="curve" smooth="yes" name="AXDDEXFY"/>
      <point x="652" y="299" name="VVMTGQVP"/>
      <point x="704" y="366" name="AIXFFNKA"/>
      <point x="784" y="366" type="curve" smooth="yes" name="ISPOOYAA"/>
      <point x="864" y="366" name="KSXCRKEB"/>
      <point x="916" y="299" name="AZNNCQFO"/>
      <point x="916" y="204" type="curve" smooth="yes" name="UUVDQZDR"/>
      <point x="916" y="108" name="VDNPRDLC"/>
      <point x="864" y="40" name="TSQCYYJB"/>
    </contour>
    <contour>
      <point x="239.0" y="0.0" type="line" name="CPMECJON"/>
      <point x="367.0" y="0.0" type="line" name="PEPYQPOY"/>
      <point x="783.0" y="680.0" type="line" name="ZQFKFAXG"/>
      <point x="655.0" y="680.0" type="line" name="OPUSLGDN"/>
    </contour>
    <contour>
      <point x="687.0" y="628.0" type="move" name="CVGMOIPZ"/>
      <point x="335.0" y="52.0" type="line" name="HAMZUUTH"/>
    </contour>
    <contour>
      <point x="367.0" y="0.0" type="move" name="JRLMZRMB"/>
      <point x="335.0" y="52.0" type="line" name="VWUMAPUP"/>
      <point x="239.0" y="0.0" type="line" name="XJBUXPFQ"/>
    </contour>
    <contour>
      <point x="655.0" y="680.0" type="move" name="ECUUNSVW"/>
      <point x="687.0" y="628.0" type="line" name="WZGBHWZC"/>
      <point x="783.0" y="680.0" type="line" name="SFLOLYUF"/>
    </contour>
  </outline>
</glyph>
<glyph name="quotesingle" format="2">
  <advance width="297"/>
  <unicode hex="0027"/>
  <outline>
    <contour>
      <point x="98.0" y="398.0" type="line" name="OZDSPUDT"/>
      <point x="64.0" y="680.0" type="line" name="PZVOPQBW"/>
      <point x="233.0" y="680.0" type="line" name="IKVLZHYU"/>
      <point x="199.0" y="398.0" type="line" name="MERCTWZY"/>
    </contour>
    <contour>
      <point x="148.0" y="444.0" type="move" name="FUOSAGSS"/>
      <point x="148.0" y="618.0" type="line" name="TSTALGLO"/>
    </contour>
    <contour>
      <point x="199.0" y="398.0" type="move" name="JRLMZRMB"/>
      <point x="148.0" y="444.0" type="line" name="VWUMAPUP"/>
      <point x="98.0" y="398.0" type="line" name="XJBUXPFQ"/>
    </contour>
    <contour>
      <point x="64.0" y="680.0" type="move" name="SFLOLYUF"/>
      <point x="148.0" y="618.0" type="line" name="WZGBHWZC"/>
      <point x="233.0" y="680.0" type="line" name="ECUUNSVW"/>
    </contour>
  </outline>
</glyph>
<glyph name="asterisk" format="2">
  <advance width="614"/>
  <unicode hex="002A"/>
  <outline>
    <contour>
      <point x="116" y="634" type="line" name="MECKVIII"/>
      <point x="192" y="514" type="line" name="YKTPYSRV"/>
      <point x="49" y="520" type="line" name="BHIQUJVV"/>
      <point x="49" y="388" type="line" name="LVKQDSRJ"/>
      <point x="190" y="394" type="line" name="OMAZMOKL"/>
      <point x="114" y="274" type="line" name="ZHCDTBPJ"/>
      <point x="228" y="208" type="line" name="GOHAPXOX"/>
      <point x="295" y="336" type="line" name="ACWKQXYF"/>
      <point x="362" y="208" type="line" name="JTCAIKSH"/>
      <point x="476" y="274" type="line" name="DTJIYNJV"/>
      <point x="400" y="394" type="line" name="VUPKMVIO"/>
      <point x="541" y="388" type="line" name="STSJHXGT"/>
      <point x="541" y="520" type="line" name="FSTURKMV"/>
      <point x="398" y="514" type="line" name="KYTGIWKT"/>
      <point x="474" y="634" type="line" name="MNOKKNGU"/>
      <point x="360" y="700" type="line" name="PPKQAQPB"/>
      <point x="295" y="576" type="line" name="XGIXSZTL"/>
      <point x="230" y="700" type="line" name="NKVNQLUX"/>
    </contour>
    <contour>
      <point x="386.0" y="613.0" type="move" name="PEICBXCV"/>
      <point x="295" y="454" type="line" name="DEKSQWVG"/>
      <point x="202.0" y="295.0" type="line" name="ZLHGZAVW"/>
    </contour>
    <contour>
      <point x="479.0" y="454.0" type="move" name="INNYXRDM"/>
      <point x="295" y="454" type="line" name="IBXXOVYM"/>
      <point x="111.0" y="454.0" type="line" name="CRLDJZKX"/>
    </contour>
    <contour>
      <point x="49.0" y="388.0" type="move" name="YKSBPDZL"/>
      <point x="111.0" y="454.0" type="line" name="SJSBMLGJ"/>
      <point x="49.0" y="520.0" type="line" name="EVCDMOCG"/>
    </contour>
    <contour>
      <point x="541.0" y="520.0" type="move" name="BYOYTQRJ"/>
      <point x="479.0" y="454.0" type="line" name="ZACJMGOO"/>
      <point x="541.0" y="388.0" type="line" name="XSHDEQQG"/>
    </contour>
    <contour>
      <point x="228" y="208" type="move" name="GTEWTERJ"/>
      <point x="202" y="295" type="line" name="MIZLOLXG"/>
      <point x="114" y="274" type="line" name="VUOIYHYH"/>
    </contour>
    <contour>
      <point x="360" y="700" type="move" name="FHEJFZQB"/>
      <point x="386.0" y="613" type="line" name="CWUVPULR"/>
      <point x="474" y="634" type="line" name="PPSGNTML"/>
    </contour>
    <contour>
      <point x="388.0" y="295.0" type="move" name="KDNXZVOM"/>
      <point x="295" y="454" type="line" name="UWCPPOSD"/>
      <point x="204.0" y="613.0" type="line" name="TYJRVITC"/>
    </contour>
    <contour>
      <point x="476" y="274" type="move" name="VSKTVMES"/>
      <point x="388" y="295" type="line" name="YQNSVTDM"/>
      <point x="362" y="208" type="line" name="FZDYGHIB"/>
    </contour>
    <contour>
      <point x="116" y="634" type="move" name="BZDXTNUZ"/>
      <point x="204.0" y="613.0" type="line" name="MVDRYWJP"/>
      <point x="230" y="700" type="line" name="YBMFCWNY"/>
    </contour>
    <contour>
      <point x="192.0" y="514.0" type="move" name="PGYRNSNI"/>
      <point x="295.0" y="454.0" type="line" name="BGGWUUFD"/>
      <point x="400.0" y="394.0" type="line" name="FYFPJSCI"/>
    </contour>
    <contour>
      <point x="190.0" y="394.0" type="move" name="SNJFCVYK"/>
      <point x="295.0" y="454.0" type="line" name="EUMFEADR"/>
      <point x="398.0" y="514.0" type="line" name="OXWWMMFN"/>
    </contour>
    <contour>
      <point x="295.0" y="576.0" type="move" name="DATUPKMK"/>
      <point x="295.0" y="454.0" type="line" name="SLOELEXA"/>
      <point x="295.0" y="336.0" type="line" name="HLGJMSZS"/>
    </contour>
  </outline>
</glyph>
<glyph name="plus" format="2">
  <advance width="540"/>
  <unicode hex="002B"/>
  <outline>
    <contour>
      <point x="40" y="247" type="line"/>
      <point x="500" y="247" type="line"/>
      <point x="500" y="374" type="line"/>
      <point x="40" y="374" type="line"/>
    </contour>
    <contour>
      <point x="334.0" y="74.0" type="line"/>
      <point x="334.0" y="544.0" type="line"/>
      <point x="203.0" y="544.0" type="line"/>
      <point x="203.0" y="74.0" type="line"/>
    </contour>
  </outline>
</glyph>
<glyph name="comma" format="2">
  <advance width="274"/>
  <unicode hex="002C"/>
  <outline>
    <contour>
      <point x="60" y="161" type="curve" name="CVWVYNXN"/>
      <point x="227" y="161" type="line" name="MVEQNUGB"/>
      <point x="237" y="50" name="BOOQQJWK"/>
      <point x="187" y="-80" name="IEIBIZAB"/>
      <point x="25" y="-130" type="curve" name="RZOJSMYH"/>
      <point x="83" y="-11" name="AVDFDHIB"/>
      <point x="84" y="72" name="LTXGFGVK"/>
    </contour>
    <contour>
      <point x="25" y="-130" type="move" smooth="yes" name="JUNWJFMJ"/>
      <point x="112" y="-63" name="WEWTMJJV"/>
      <point x="147" y="19" name="AEXINPXG"/>
      <point x="148" y="99" type="curve" name="AZXRXXIH"/>
    </contour>
    <contour>
      <point x="60.0" y="161.0" type="move" name="XJBUXPFQ"/>
      <point x="148.0" y="99.0" type="line" name="VWUMAPUP"/>
      <point x="227.0" y="161.0" type="line" name="JRLMZRMB"/>
    </contour>
  </outline>
</glyph>
<glyph name="hyphen" format="2">
  <advance width="340"/>
  <unicode hex="002D"/>
  <outline>
    <contour>
      <point x="35" y="226" type="line" name="ZILXRWAY"/>
      <point x="305" y="286" type="line" name="RAMESAZG"/>
      <point x="305" y="411" type="line" name="YMQJXUTK"/>
      <point x="35" y="351" type="line" name="BDKSGHQS"/>
    </contour>
  </outline>
</glyph>
<glyph name="slash" format="2">
  <advance width="490"/>
  <unicode hex="002F"/>
  <outline>
    <contour>
      <point x="25" y="-75" type="line"/>
      <point x="166" y="-75" type="line"/>
      <point x="466" y="750" type="line"/>
      <point x="325" y="750" type="line"/>
    </contour>
  </outline>
</glyph>
<glyph name="five" format="2">
  <advance width="527"/>
  <unicode hex="0035"/>
  <outline>
    <contour>
      <point x="60" y="290" type="line" name="JOTPAVZG"/>
      <point x="264" y="335" name="BAGRSEYF"/>
      <point x="334" y="287" name="PDLQITYZ"/>
      <point x="334" y="214" type="curve" smooth="yes" name="CEQKMZSI"/>
      <point x="334" y="149" name="ETMTHPJB"/>
      <point x="296" y="111" name="QCZPUUQG"/>
      <point x="222" y="111" type="curve" smooth="yes" name="HNUESKGU"/>
      <point x="163" y="111" name="RFBSAEMH"/>
      <point x="106" y="136" name="YAXSWETV"/>
      <point x="50" y="177" type="curve" name="CYCTVXZT"/>
      <point x="50" y="14" type="line" name="GBMGZBGY"/>
      <point x="271" y="-63" name="OVAWJLEM"/>
      <point x="487" y="22" name="SXRJMJVT"/>
      <point x="487" y="214" type="curve" smooth="yes" name="YFRYQSCR"/>
      <point x="487" y="353" name="RSVQFWAI"/>
      <point x="386" y="434" name="LRLHVRBA"/>
      <point x="203" y="427" type="curve" name="AGRKEKMN"/>
      <point x="215" y="552" type="line" name="DTTMTNCJ"/>
      <point x="362" y="551" name="SQOBYOPO"/>
      <point x="416" y="541" name="TOVEMTTX"/>
      <point x="449" y="524" type="curve" name="ZNNGBQJF"/>
      <point x="449" y="680" type="line" name="NUXQKVJL"/>
      <point x="96" y="680" type="line" name="THJJGMTN"/>
    </contour>
    <contour>
      <point x="112" y="68" type="move" smooth="yes" name="WWGCWHSS"/>
      <point x="147" y="55" name="MXDDVGVB"/>
      <point x="182" y="48" name="QNODJVLA"/>
      <point x="216" y="48" type="curve" smooth="yes" name="CFIYQJKS"/>
      <point x="330" y="48" name="WQFZFIQW"/>
      <point x="410" y="110" name="ARTWFIHU"/>
      <point x="410" y="214" type="curve" smooth="yes" name="ZKGQPJDN"/>
      <point x="410" y="322" name="DVJSNSQB"/>
      <point x="322" y="387" name="XMUQCHAM"/>
      <point x="132" y="361" type="curve" name="CTTMUKAN"/>
      <point x="156" y="616" type="line" name="JZJVITAN"/>
      <point x="387" y="615" type="line" name="XSDQVTLM"/>
    </contour>
    <contour>
      <point x="449.0" y="680.0" type="move" name="EFXCGOBP"/>
      <point x="387.0" y="615.0" type="line" name="GEKQYSIJ"/>
      <point x="449.0" y="524.0" type="line" name="PVONLEGE"/>
    </contour>
    <contour>
      <point x="50.0" y="14.0" type="move" name="DRCDCDZK"/>
      <point x="112.0" y="68.0" type="line" name="UEGRQXCH"/>
      <point x="50.0" y="177.0" type="line" name="QZEWOOHK"/>
    </contour>
    <contour>
      <point x="60.0" y="290.0" type="move" name="VJDZZYDJ"/>
      <point x="132.0" y="361.0" type="line" name="CUINSKLC"/>
      <point x="203.0" y="427.0" type="line" name="IEDCTOMM"/>
    </contour>
    <contour>
      <point x="216.0" y="552.0" type="move" name="TWQETXVV"/>
      <point x="156.0" y="616.0" type="line" name="RKDHTPPG"/>
      <point x="96.0" y="680.0" type="line" name="CHDKNGSY"/>
    </contour>
  </outline>
</glyph>
<glyph name="six" format="2">
  <advance width="570"/>
  <unicode hex="0036"/>
  <outline>
    <contour>
      <point x="496" y="501" type="curve" name="AUNNFZSQ"/>
      <point x="496" y="664" type="line" name="BZXKISCL"/>
      <point x="227" y="750" name="RHTKYLRY"/>
      <point x="35" y="632" name="PGXJNJNN"/>
      <point x="35" y="317" type="curve" smooth="yes" name="HUXYVKMJ"/>
      <point x="35" y="93" name="WQIMWNYG"/>
      <point x="139" y="-18" name="ZPGVACDV"/>
      <point x="292" y="-18" type="curve" smooth="yes" name="CCGVCDXU"/>
      <point x="443" y="-18" name="KYTSWLRE"/>
      <point x="540" y="86" name="ZSGEYHSH"/>
      <point x="540" y="219" type="curve" smooth="yes" name="ZZBVKVCS"/>
      <point x="540" y="368" name="HVOUXGMA"/>
      <point x="432" y="440" name="XZOYYZRX"/>
      <point x="323" y="440" type="curve" smooth="yes" name="JFRWYKIF"/>
      <point x="273" y="440" name="REYFTALA"/>
      <point x="223" y="423" name="YMJDFJHL"/>
      <point x="185" y="391" type="curve" name="XICZCLFL"/>
      <point x="193" y="523" name="YDURWDNR"/>
      <point x="251" y="565" name="XANHKDSO"/>
      <point x="328" y="565" type="curve" smooth="yes" name="NJYZBWPX"/>
      <point x="381" y="565" name="HDTOLWLW"/>
      <point x="439" y="542" name="VXAGYZSU"/>
    </contour>
    <contour>
      <point x="293" y="107" type="curve" smooth="yes" name="GDQLGKFD"/>
      <point x="235" y="107" name="TCABTZKR"/>
      <point x="196" y="152" name="UCGAPSSV"/>
      <point x="196" y="217" type="curve" smooth="yes" name="JUNYQFVN"/>
      <point x="196" y="279" name="GGBWCDKS"/>
      <point x="235" y="321" name="HPVJHHMY"/>
      <point x="293" y="321" type="curve" smooth="yes" name="HKACLSNE"/>
      <point x="351" y="321" name="ULHWJOTK"/>
      <point x="391" y="278" name="JKIRNEHK"/>
      <point x="391" y="214" type="curve" smooth="yes" name="NVHESDJX"/>
      <point x="391" y="152" name="IAQYAUXB"/>
      <point x="351" y="107" name="AWMYQYPR"/>
    </contour>
    <contour>
      <point x="201" y="70" type="move" name="SQKKVBEU"/>
      <point x="158" y="101" name="DHUATODE"/>
      <point x="133" y="152" name="MCMKNWQU"/>
      <point x="133" y="214" type="curve" smooth="yes" name="WWQNYGBI"/>
      <point x="133" y="313" name="AMPMBSMR"/>
      <point x="203" y="380" name="PQBOYOLH"/>
      <point x="308" y="380" type="curve" smooth="yes" name="NZOIIPIJ"/>
      <point x="392" y="380" name="FYXBCOQH"/>
      <point x="466" y="323" name="QQKNZCZT"/>
      <point x="466" y="216" type="curve" smooth="yes" name="PXAEVVYR"/>
      <point x="466" y="119" name="KOVYITLZ"/>
      <point x="397" y="44" name="PRYIPVRD"/>
      <point x="292" y="44" type="curve" smooth="yes" name="NRWRTGKT"/>
      <point x="187" y="44" name="GDSURPUK"/>
      <point x="108" y="128" name="QHYAQFIG"/>
      <point x="108" y="307" type="curve" name="MLRGKLGW"/>
      <point x="105" y="544" name="ZLKYAWCO"/>
      <point x="198" y="628" name="YGTUJGMY"/>
      <point x="332" y="628" type="curve" smooth="yes" name="KNXOBIJL"/>
      <point x="364" y="628" name="KLTGLWGT"/>
      <point x="398" y="622" name="HVNVNIHN"/>
      <point x="434" y="609" type="curve" smooth="yes" name="HHHDNAIW"/>
    </contour>
    <contour>
      <point x="185" y="391" type="move" name="WVJDBPST"/>
      <point x="129" y="343" name="UEMXPCWP"/>
      <point x="97" y="259" name="AGUKYDLW"/>
      <point x="144" y="138" type="curve" name="BELPDSFQ"/>
    </contour>
    <contour>
      <point x="496.0" y="664.0" type="move" name="EFXCGOBP"/>
      <point x="434.0" y="609.0" type="line" name="GEKQYSIJ"/>
      <point x="496.0" y="501.0" type="line" name="PVONLEGE"/>
    </contour>
  </outline>
</glyph>
<glyph name="seven" format="2">
  <advance width="503"/>
  <unicode hex="0037"/>
  <outline>
    <contour>
      <point x="284" y="554" type="curve" smooth="yes"/>
      <point x="380" y="554" type="line"/>
      <point x="410" y="680" type="line"/>
      <point x="35" y="680" type="line"/>
      <point x="35" y="524" type="line"/>
      <point x="70" y="542"/>
      <point x="120" y="554"/>
    </contour>
    <contour>
      <point x="232" y="349" type="line" smooth="yes"/>
      <point x="139" y="104"/>
      <point x="107" y="44"/>
      <point x="71" y="0" type="curve"/>
      <point x="285" y="0" type="line"/>
      <point x="268" y="49"/>
      <point x="274" y="101"/>
      <point x="372" y="349" type="curve" smooth="yes"/>
      <point x="503" y="680" type="line"/>
      <point x="358" y="680" type="line"/>
    </contour>
  </outline>
</glyph>
<glyph name="eight" format="2">
  <advance width="568"/>
  <unicode hex="0038"/>
  <outline>
    <contour>
      <point x="285" y="-18" type="curve" smooth="yes" name="WYEDCRAS"/>
      <point x="429" y="-18" name="JRFQMIJQ"/>
      <point x="532" y="68" name="FVTGHWUD"/>
      <point x="532" y="189" type="curve" smooth="yes" name="QPNWEKLA"/>
      <point x="532" y="267" name="VCMAFFDB"/>
      <point x="496" y="324" name="CZIMAEPU"/>
      <point x="439" y="358" type="curve" name="JUUIJCUL"/>
      <point x="485" y="389" name="OSKPWUMT"/>
      <point x="513" y="438" name="XFYGTDRQ"/>
      <point x="513" y="503" type="curve" smooth="yes" name="QBJWZXXQ"/>
      <point x="513" y="614" name="NIALAVRJ"/>
      <point x="416" y="698" name="PSOEWPRB"/>
      <point x="285" y="698" type="curve" smooth="yes" name="UMOQWSIF"/>
      <point x="153" y="698" name="PIBRNKCS"/>
      <point x="55" y="614" name="WXIASFSI"/>
      <point x="55" y="503" type="curve" smooth="yes" name="EXAGAEHT"/>
      <point x="55" y="438" name="MUAODOCN"/>
      <point x="83" y="389" name="NUSWMSBQ"/>
      <point x="130" y="358" type="curve" name="EUTZMYNZ"/>
      <point x="72" y="324" name="PTKTVUHV"/>
      <point x="36" y="267" name="AYQFOSNE"/>
      <point x="36" y="189" type="curve" smooth="yes" name="OHCSUMXC"/>
      <point x="36" y="68" name="VUXIOHNG"/>
      <point x="139" y="-18" name="KRBRQUHE"/>
    </contour>
    <contour>
      <point x="285" y="412" type="curve" smooth="yes" name="UZJQLGTU"/>
      <point x="238" y="412" name="KXQPUDZU"/>
      <point x="203" y="445" name="RCFSHKWW"/>
      <point x="203" y="493" type="curve" smooth="yes" name="AIJJHFFI"/>
      <point x="203" y="541" name="FEJYBPKJ"/>
      <point x="237" y="574" name="JXRPUAEH"/>
      <point x="285" y="574" type="curve" smooth="yes" name="HFDZAJUG"/>
      <point x="332" y="574" name="LOILWLOL"/>
      <point x="365" y="541" name="MRDWKBVI"/>
      <point x="365" y="493" type="curve" smooth="yes" name="UOQOVKCG"/>
      <point x="365" y="445" name="BAVXBVAK"/>
      <point x="332" y="412" name="ICBWWKID"/>
    </contour>
    <contour>
      <point x="285" y="106" type="curve" smooth="yes" name="BRQPWGMD"/>
      <point x="230" y="106" name="FPWNHQFR"/>
      <point x="186" y="146" name="YMKVEMFT"/>
      <point x="186" y="204" type="curve" smooth="yes" name="VTCIMKCL"/>
      <point x="186" y="263" name="VHFRQSVX"/>
      <point x="230" y="300" name="KQQJBETI"/>
      <point x="285" y="300" type="curve" smooth="yes" name="NVLHQWIU"/>
      <point x="339" y="300" name="TOQHOVUI"/>
      <point x="382" y="263" name="IHLWRUME"/>
      <point x="382" y="204" type="curve" smooth="yes" name="KPJKYCNS"/>
      <point x="382" y="146" name="QCPYFMZE"/>
      <point x="339" y="106" name="LQETGNIH"/>
    </contour>
    <contour>
      <point x="285" y="356" type="curve" smooth="yes" name="BWOBEFYK"/>
      <point x="196" y="356" name="ZXMDJFWV"/>
      <point x="129" y="407" name="FOWLEBTQ"/>
      <point x="129" y="498" type="curve" smooth="yes" name="AXWVWTWP"/>
      <point x="129" y="578" name="XDSFKIQD"/>
      <point x="195" y="636" name="TDMGFFIS"/>
      <point x="285" y="636" type="curve" smooth="yes" name="MQVSWYAN"/>
      <point x="374" y="636" name="EXTNEQFS"/>
      <point x="439" y="578" name="KBGSIMNZ"/>
      <point x="439" y="498" type="curve" smooth="yes" name="PMSJRNYV"/>
      <point x="439" y="407" name="ROAHMESG"/>
      <point x="374" y="356" name="DHBABKQC"/>
    </contour>
    <contour>
      <point x="285" y="44" type="curve" smooth="yes" name="IUZWDGCH"/>
      <point x="384" y="44" name="SHFCJQZN"/>
      <point x="457" y="107" name="FIKSEJUQ"/>
      <point x="457" y="196" type="curve" smooth="yes" name="QMZBRZUK"/>
      <point x="457" y="298" name="TOKAGHNL"/>
      <point x="382" y="356" name="VGOBTXFI"/>
      <point x="285" y="356" type="curve" smooth="yes" name="JNVCWQME"/>
      <point x="186" y="356" name="IMEHISYK"/>
      <point x="111" y="298" name="WOLSCWDK"/>
      <point x="111" y="196" type="curve" smooth="yes" name="KERINFLN"/>
      <point x="111" y="107" name="DGUSJGRT"/>
      <point x="184" y="44" name="KCRQZXJM"/>
    </contour>
    <contour>
      <point x="130.0" y="358.0" type="move" name="SCNFFGJN"/>
      <point x="285.0" y="356.0" type="line" name="YTQZVMGX"/>
      <point x="439.0" y="358.0" type="line" name="WMKLGMXH"/>
    </contour>
  </outline>
</glyph>
<glyph name="nine" format="2">
  <advance width="570"/>
  <unicode hex="0039"/>
  <outline>
    <contour>
      <point x="277" y="571" type="curve" smooth="yes"/>
      <point x="335" y="571"/>
      <point x="374" y="526"/>
      <point x="374" y="461" type="curve" smooth="yes"/>
      <point x="374" y="399"/>
      <point x="335" y="357"/>
      <point x="277" y="357" type="curve" smooth="yes"/>
      <point x="219" y="357"/>
      <point x="179" y="400"/>
      <point x="179" y="464" type="curve" smooth="yes"/>
      <point x="179" y="526"/>
      <point x="219" y="571"/>
    </contour>
    <contour>
      <point x="74" y="177" type="curve"/>
      <point x="74" y="14" type="line"/>
      <point x="343" y="-72"/>
      <point x="535" y="46"/>
      <point x="535" y="361" type="curve" smooth="yes"/>
      <point x="535" y="585"/>
      <point x="431" y="696"/>
      <point x="278" y="696" type="curve" smooth="yes"/>
      <point x="127" y="696"/>
      <point x="30" y="592"/>
      <point x="30" y="459" type="curve" smooth="yes"/>
      <point x="30" y="310"/>
      <point x="138" y="238"/>
      <point x="247" y="238" type="curve" smooth="yes"/>
      <point x="326" y="238"/>
      <point x="405" y="281"/>
      <point x="439" y="356" type="curve"/>
      <point x="386" y="337" type="line"/>
      <point x="391" y="166"/>
      <point x="328" y="113"/>
      <point x="242" y="113" type="curve" smooth="yes"/>
      <point x="189" y="113"/>
      <point x="131" y="136"/>
    </contour>
  </outline>
</glyph>
<glyph name="colon" format="2">
  <advance width="271"/>
  <unicode hex="003A"/>
  <outline>
    <contour>
      <point x="55" y="0" type="line"/>
      <point x="216" y="0" type="line"/>
      <point x="216" y="161" type="line"/>
      <point x="55" y="161" type="line"/>
    </contour>
    <contour>
      <point x="55.0" y="362.0" type="line"/>
      <point x="216.0" y="362.0" type="line"/>
      <point x="216.0" y="523.0" type="line"/>
      <point x="55.0" y="523.0" type="line"/>
    </contour>
  </outline>
</glyph>
<glyph name="equal" format="2">
  <advance width="490"/>
  <unicode hex="003D"/>
  <outline>
    <contour>
      <point x="388.0" y="188.0" type="move" name="NHUIFZGC"/>
      <point x="102.0" y="188.0" type="line" name="FHKONJBF"/>
    </contour>
    <contour>
      <point x="40.0" y="125.0" type="move" name="ABHQBCWC"/>
      <point x="102.0" y="188.0" type="line" name="FNLSIUGI"/>
      <point x="40.0" y="252.0" type="line" name="DRJJTAUP"/>
    </contour>
    <contour>
      <point x="450.0" y="252.0" type="move" name="IYGLUXJP"/>
      <point x="388.0" y="188.0" type="line" name="SBTAPLVF"/>
      <point x="450.0" y="125.0" type="line" name="FHTTXSJP"/>
    </contour>
    <contour>
      <point x="40.0" y="125.0" type="line" name="ZKCVMAKH"/>
      <point x="40.0" y="252.0" type="line" name="BMKGFDIJ"/>
      <point x="450.0" y="252.0" type="line" name="CXSVLCXH"/>
      <point x="450.0" y="125.0" type="line" name="AJIGCHAK"/>
    </contour>
    <contour>
      <point x="388.0" y="428.0" type="move" name="SAFHUSSR"/>
      <point x="102.0" y="428.0" type="line" name="RFIZOCFH"/>
    </contour>
    <contour>
      <point x="40.0" y="365.0" type="move" name="CCQEEEHQ"/>
      <point x="102.0" y="428.0" type="line" name="BGIWGUVH"/>
      <point x="40.0" y="492.0" type="line" name="XKWRAQLF"/>
    </contour>
    <contour>
      <point x="450.0" y="492.0" type="move" name="IEQBPFZH"/>
      <point x="388.0" y="428.0" type="line" name="QICFKYLA"/>
      <point x="450.0" y="365.0" type="line" name="FNNHCQUS"/>
    </contour>
    <contour>
      <point x="40.0" y="365.0" type="line" name="KCLFQHWH"/>
      <point x="40.0" y="492.0" type="line" name="YLGNORQM"/>
      <point x="450.0" y="492.0" type="line" name="ATKVEDOS"/>
      <point x="450.0" y="365.0" type="line" name="VBNWJPRR"/>
    </contour>
  </outline>
</glyph>
<glyph name="C" format="2">
  <advance width="610"/>
  <unicode hex="0043"/>
  <anchor x="349" y="0" name="center"/>
  <outline>
    <contour>
      <point x="189" y="340" type="curve" smooth="yes" name="ZTOMZSHJ"/>
      <point x="189" y="479" name="YLXGMHNL"/>
      <point x="263" y="564" name="LJOYVVEK"/>
      <point x="370" y="564" type="curve" smooth="yes" name="SHPNPZJQ"/>
      <point x="436" y="564" name="ICHGITSW"/>
      <point x="502" y="531" name="PIOFONDU"/>
      <point x="550" y="490" type="curve" name="HPRWELAB"/>
      <point x="550" y="658" type="line" name="IKLOTKUV"/>
      <point x="501" y="680" name="TDWCLQUY"/>
      <point x="439" y="692" name="BFFDIVHZ"/>
      <point x="378" y="692" type="curve" smooth="yes" name="MECSBSXR"/>
      <point x="167" y="692" name="FTZOKMWZ"/>
      <point x="37" y="546" name="TOCPKKOQ"/>
      <point x="37" y="338" type="curve" smooth="yes" name="MXCINSLZ"/>
      <point x="37" y="130" name="MGUEJJEP"/>
      <point x="167" y="-12" name="VBZJASOU"/>
      <point x="378" y="-12" type="curve" smooth="yes" name="LVPMOYYB"/>
      <point x="439" y="-12" name="ZSVZEFRH"/>
      <point x="501" y="0" name="HVFCLTFQ"/>
      <point x="550" y="22" type="curve" name="TBWVDPPF"/>
      <point x="550" y="190" type="line" name="FCYNOSNY"/>
      <point x="500" y="146" name="EMBXHTCA"/>
      <point x="437" y="117" name="KQQSBZJZ"/>
      <point x="371" y="117" type="curve" smooth="yes" name="MUXQBMUD"/>
      <point x="264" y="117" name="LWMSBIBO"/>
      <point x="189" y="201" name="FEWDNOIV"/>
    </contour>
    <contour>
      <point x="488" y="607" type="move" smooth="yes" name="DPEXBIPW"/>
      <point x="453" y="620" name="EQSYGSUQ"/>
      <point x="409" y="628" name="UEAMWQAD"/>
      <point x="374" y="628" type="curve" smooth="yes" name="KQUUYGGH"/>
      <point x="215" y="628" name="ZZZCHOTG"/>
      <point x="113" y="512" name="YHMSRLBE"/>
      <point x="113" y="339" type="curve" smooth="yes" name="URTIXGAW"/>
      <point x="113" y="166" name="ZKEMGPQX"/>
      <point x="216" y="52" name="MNUUPVSW"/>
      <point x="374" y="52" type="curve" smooth="yes" name="NBNNAADE"/>
      <point x="409" y="52" name="TCCYPWOU"/>
      <point x="456" y="59" name="XOXXAJYZ"/>
      <point x="488" y="71" type="curve" smooth="yes" name="ZRADGHXR"/>
    </contour>
    <contour>
      <point x="550.0" y="658.0" type="move" name="ZVSPBBMH"/>
      <point x="488.0" y="607.0" type="line" name="PJYICBXU"/>
      <point x="550.0" y="490.0" type="line" name="JTRIQKLW"/>
    </contour>
    <contour>
      <point x="550.0" y="190.0" type="move" name="IQVNJISR"/>
      <point x="488.0" y="71.0" type="line" name="MBLKTCQA"/>
      <point x="550.0" y="22.0" type="line" name="LMCNVRTT"/>
    </contour>
  </outline>
</glyph>
<glyph name="D" format="2">
  <advance width="691"/>
  <unicode hex="0044"/>
  <outline>
    <contour>
      <point x="57" y="0" type="curve" name="YUTTOALI"/>
      <point x="311" y="0" type="line" smooth="yes" name="LQZAENEK"/>
      <point x="509" y="0" name="HUYDIUXZ"/>
      <point x="654" y="134" name="TMZCDOYW"/>
      <point x="654" y="341" type="curve" smooth="yes" name="KHMNPYCV"/>
      <point x="654" y="547" name="LFJSZBTA"/>
      <point x="509" y="680" name="IMERWOKO"/>
      <point x="311" y="680" type="curve" smooth="yes" name="SNIGDFOW"/>
      <point x="57" y="680" type="line" name="NARCANED"/>
      <point x="77" y="641" name="FGYWPHBB"/>
      <point x="84" y="589" name="XMHFZDOH"/>
      <point x="84" y="349" type="curve" smooth="yes" name="ICVUVVSG"/>
      <point x="84" y="95" name="NMHMIKMX"/>
      <point x="77" y="40" name="DEZRTJUR"/>
    </contour>
    <contour>
      <point x="301" y="555" type="line" smooth="yes" name="DUEEDHVO"/>
      <point x="425" y="555" name="JTWLSGVD"/>
      <point x="502" y="471" name="DRCJJRFT"/>
      <point x="502" y="341" type="curve" smooth="yes" name="KYFGISKO"/>
      <point x="502" y="210" name="RBSFSIDL"/>
      <point x="425" y="125" name="AOHADNBK"/>
      <point x="301" y="125" type="curve" smooth="yes" name="AWNKGDGL"/>
      <point x="231" y="125" type="line" name="PVMZDKHD"/>
      <point x="228" y="175" name="NJJJFBKA"/>
      <point x="227" y="245" name="FUCHONZC"/>
      <point x="227" y="349" type="curve" smooth="yes" name="PCMUEKKM"/>
      <point x="227" y="443" name="QPLXJIOG"/>
      <point x="228" y="508" name="EBBOSNQY"/>
      <point x="231" y="555" type="curve" name="XHGLIXON"/>
    </contour>
    <contour>
      <point x="231.0" y="125.0" type="move" name="MJVZATKE"/>
      <point x="156.0" y="62.0" type="line" name="ZWRNCKHQ"/>
      <point x="57" y="0" type="line" name="EFSHOVMG"/>
    </contour>
    <contour>
      <point x="57.0" y="680.0" type="move" name="PGAOAJGW"/>
      <point x="156.0" y="618.0" type="line" name="ZPXQPUIZ"/>
      <point x="231.0" y="555.0" type="line" name="MKNQWECE"/>
    </contour>
    <contour>
      <point x="156.0" y="62.0" type="line" name="AQFNPWKD"/>
      <point x="156.0" y="618.0" type="line" name="XGLJNHJF"/>
      <point x="306" y="618" type="line" smooth="yes" name="VAASNHYO"/>
      <point x="467" y="618" name="TNRFHSZN"/>
      <point x="578" y="509" name="ZWJKCABV"/>
      <point x="578" y="341" type="curve" smooth="yes" name="VGDCTNWC"/>
      <point x="578" y="172" name="ALDKOYCL"/>
      <point x="467.0" y="62" name="XXAOFSRB"/>
      <point x="306" y="62" type="curve" smooth="yes" name="KIJSYAEP"/>
    </contour>
  </outline>
</glyph>
<glyph name="F" format="2">
  <advance width="521"/>
  <unicode hex="0046"/>
  <outline>
    <contour>
      <point x="57" y="0" type="curve" name="VHVPZLCR"/>
      <point x="254" y="0" type="line" name="WUIXLAWY"/>
      <point x="236" y="35" name="VJESDNXQ"/>
      <point x="229" y="83" name="MKARGWUW"/>
      <point x="227" y="270" type="curve" name="LDITZVUM"/>
      <point x="387" y="269" name="RXHUBHUM"/>
      <point x="419" y="264" name="EVITDIKE"/>
      <point x="449" y="249" type="curve" name="QLUSOIVD"/>
      <point x="449" y="412" type="line" name="HSHDLEVK"/>
      <point x="419" y="396" name="FJYMGNBQ"/>
      <point x="387" y="391" name="OSCXNEZB"/>
      <point x="227" y="390" type="curve" name="IXTLIMDR"/>
      <point x="227" y="463" name="GUNNTHJS"/>
      <point x="228" y="515" name="EIIABLXM"/>
      <point x="231" y="555" type="curve" name="YCQWJXRP"/>
      <point x="403" y="558" name="RSZZZGQD"/>
      <point x="443" y="541" name="IDSOPHTR"/>
      <point x="476" y="524" type="curve" name="XBATBZUX"/>
      <point x="476" y="680" type="line" name="HDVNRHHZ"/>
      <point x="57" y="680" type="line" name="JURONWOR"/>
      <point x="77" y="641" name="NHGZQGKV"/>
      <point x="84" y="589" name="HIYHCUUL"/>
      <point x="84" y="349" type="curve" smooth="yes" name="IYDTFPPC"/>
      <point x="84" y="95" name="PFVTFYMX"/>
      <point x="77" y="40" name="FLHMKTWW"/>
    </contour>
    <contour>
      <point x="387.0" y="330.0" type="move" name="GRLQYXQK"/>
      <point x="156" y="330" type="line" name="GHHEYZBI"/>
    </contour>
    <contour>
      <point x="57.0" y="680.0" type="move" name="GRZQCAGM"/>
      <point x="156.0" y="618.0" type="line" name="LXMSTDXV"/>
      <point x="231.0" y="555.0" type="line" name="MENRSPSU"/>
    </contour>
    <contour>
      <point x="476.0" y="680.0" type="move" name="IIYOJRYX"/>
      <point x="414.0" y="611.0" type="line" name="BUWWFJIJ"/>
      <point x="476.0" y="524.0" type="line" name="DMOCMXSX"/>
    </contour>
    <contour>
      <point x="449.0" y="412.0" type="move" name="UBWSCXEJ"/>
      <point x="387.0" y="330.0" type="line" name="OGPDTMUS"/>
      <point x="449.0" y="249.0" type="line" name="JMWBMAFS"/>
    </contour>
    <contour>
      <point x="227.0" y="390.0" type="move" name="HAWFMGNR"/>
      <point x="156.0" y="330.0" type="line" name="ROFWTZTV"/>
      <point x="227.0" y="270.0" type="line" name="GOKVVXDN"/>
    </contour>
    <contour>
      <point x="414" y="611" type="move" smooth="yes" name="PSTPYLRZ"/>
      <point x="343" y="616" name="SKEEOTAO"/>
      <point x="225" y="620" name="TDJFVIIW"/>
      <point x="156" y="618" type="curve" name="DARGRHBN"/>
      <point x="156" y="62" type="line" name="BZBSRBAL"/>
    </contour>
    <contour>
      <point x="254.0" y="0.0" type="move" name="MJVZATKE"/>
      <point x="156.0" y="62.0" type="line" name="ZWRNCKHQ"/>
      <point x="57" y="0" type="line" name="EFSHOVMG"/>
    </contour>
  </outline>
</glyph>
<glyph name="H" format="2">
  <advance width="703"/>
  <unicode hex="0048"/>
  <outline>
    <contour>
      <point x="57" y="0" type="curve" name="EZSBJBYE"/>
      <point x="254" y="0" type="line" name="FBLWJBVS"/>
      <point x="236" y="37" name="XMXJMMRB"/>
      <point x="228" y="86" name="HPRBZYUP"/>
      <point x="227" y="291" type="curve" name="XUNFAXJR"/>
      <point x="476" y="291" type="line" name="NDHHPJUQ"/>
      <point x="475" y="86" name="XLZDLBKJ"/>
      <point x="467" y="37" name="KYOOEKOC"/>
      <point x="449" y="0" type="curve" name="MXEKSMBH"/>
      <point x="646" y="0" type="line" name="OMXFLDYS"/>
      <point x="626" y="40" name="ZHUSTKVK"/>
      <point x="619" y="95" name="BYKBSQXL"/>
      <point x="619" y="349" type="curve" smooth="yes" name="FAQSGATY"/>
      <point x="619" y="589" name="BGGGMSMS"/>
      <point x="626" y="641" name="HPOKVHHF"/>
      <point x="646" y="680" type="curve" name="FHGITFPS"/>
      <point x="449" y="680" type="line" name="WFSVCECA"/>
      <point x="467" y="645" name="EBALIVSZ"/>
      <point x="474" y="600" name="XUZDRFCV"/>
      <point x="476" y="418" type="curve" name="FOVBJTJB"/>
      <point x="227" y="418" type="line" name="IEDVCRTN"/>
      <point x="229" y="600" name="VVYBURJW"/>
      <point x="236" y="645" name="ZQCTETGT"/>
      <point x="254" y="680" type="curve" name="PEWHBVGI"/>
      <point x="57" y="680" type="line" name="PTZWGXEY"/>
      <point x="77" y="641" name="CAERPLQG"/>
      <point x="84" y="589" name="WWREGVBR"/>
      <point x="84" y="349" type="curve" smooth="yes" name="MJVBJLFL"/>
      <point x="84" y="95" name="YLEKRAUL"/>
      <point x="77" y="40" name="YXOBABRJ"/>
    </contour>
    <contour>
      <point x="156.0" y="618.0" type="move" name="JKIZUAWY"/>
      <point x="156" y="354" type="line" name="VVUDKNUD"/>
      <point x="156.0" y="62.0" type="line" name="IKYWWOLM"/>
    </contour>
    <contour>
      <point x="547.0" y="618.0" type="move" name="XGDMMTLW"/>
      <point x="548" y="354" type="line" name="ZEMYKHZL"/>
      <point x="548.0" y="62.0" type="line" name="UYOPCAZO"/>
    </contour>
    <contour>
      <point x="548.0" y="354.0" type="move" name="DTCUJTOO"/>
      <point x="156.0" y="354.0" type="line" name="XIGZJSSE"/>
    </contour>
    <contour>
      <point x="227.0" y="418.0" type="move" name="BHAZYCJU"/>
      <point x="156.0" y="354.0" type="line" name="LKPQIGAZ"/>
      <point x="227.0" y="291.0" type="line" name="CGSXIVVA"/>
    </contour>
    <contour>
      <point x="254.0" y="0.0" type="move" name="JRLMZRMB"/>
      <point x="156.0" y="62.0" type="line" name="VWUMAPUP"/>
      <point x="57" y="0" type="line" name="XJBUXPFQ"/>
    </contour>
    <contour>
      <point x="57.0" y="680.0" type="move" name="ECUUNSVW"/>
      <point x="156.0" y="618.0" type="line" name="WZGBHWZC"/>
      <point x="254.0" y="680.0" type="line" name="SFLOLYUF"/>
    </contour>
    <contour>
      <point x="476.0" y="291.0" type="move" name="YPKTMTLM"/>
      <point x="548.0" y="354.0" type="line" name="TMPWPBHT"/>
      <point x="476.0" y="418.0" type="line" name="CCFQGQHD"/>
    </contour>
    <contour>
      <point x="646.0" y="0.0" type="move" name="PXIBMFLN"/>
      <point x="548.0" y="62.0" type="line" name="YWMEWBPF"/>
      <point x="449.0" y="0.0" type="line" name="RZJHOCJT"/>
    </contour>
    <contour>
      <point x="449.0" y="680.0" type="move" name="NUKKCNGE"/>
      <point x="547.0" y="618.0" type="line" name="POROMZGU"/>
      <point x="646.0" y="680.0" type="line" name="FQNYHCGX"/>
    </contour>
  </outline>
</glyph>
<glyph name="I" format="2">
  <advance width="319"/>
  <unicode hex="0049"/>
  <outline>
    <contour>
      <point x="61" y="0" type="curve" name="MPEQAMMH"/>
      <point x="258" y="0" type="line" name="AQXHJDIP"/>
      <point x="238" y="40" name="GMHOCUQV"/>
      <point x="231" y="95" name="DYYCJHJS"/>
      <point x="231" y="349" type="curve" smooth="yes" name="SKRQHPHT"/>
      <point x="231" y="589" name="FHMLNKRW"/>
      <point x="238" y="641" name="ZAUWLJDQ"/>
      <point x="258" y="680" type="curve" name="HXLEOYGE"/>
      <point x="61" y="680" type="line" name="ZMCOAEXK"/>
      <point x="81" y="641" name="CJSLTGXE"/>
      <point x="88" y="589" name="IMBJAEUZ"/>
      <point x="88" y="349" type="curve" smooth="yes" name="ASLTJWFP"/>
      <point x="88" y="95" name="EQAGAFRV"/>
      <point x="81" y="40" name="YORXKDLF"/>
    </contour>
    <contour>
      <point x="160.0" y="618.0" type="move" name="JKIZUAWY"/>
      <point x="160.0" y="62.0" type="line" name="IKYWWOLM"/>
    </contour>
    <contour>
      <point x="258.0" y="0.0" type="move" name="JRLMZRMB"/>
      <point x="160.0" y="62.0" type="line" name="VWUMAPUP"/>
      <point x="61.0" y="0.0" type="line" name="XJBUXPFQ"/>
    </contour>
    <contour>
      <point x="61.0" y="680.0" type="move" name="ECUUNSVW"/>
      <point x="160.0" y="618.0" type="line" name="WZGBHWZC"/>
      <point x="258.0" y="680.0" type="line" name="SFLOLYUF"/>
    </contour>
  </outline>
</glyph>
<glyph name="L" format="2">
  <advance width="504"/>
  <unicode hex="004C"/>
  <outline>
    <contour>
      <point x="57" y="0" type="curve" name="JUEEEIDE"/>
      <point x="459" y="0" type="line" name="STKOFXNW"/>
      <point x="479" y="171" type="line" name="RIJXEUVQ"/>
      <point x="444" y="143" name="ZDVAKKNR"/>
      <point x="394" y="130" name="DBJLNACQ"/>
      <point x="231" y="132" type="curve" name="KFBABXWY"/>
      <point x="228" y="181" name="LVLCLAFJ"/>
      <point x="227" y="250" name="JQUGERKR"/>
      <point x="227" y="349" type="curve" smooth="yes" name="LMMJMORA"/>
      <point x="227" y="589" name="VCFCZWNV"/>
      <point x="234" y="641" name="HHMETMEC"/>
      <point x="254" y="680" type="curve" name="QWSMCLHA"/>
      <point x="57" y="680" type="line" name="BPYQGOVX"/>
      <point x="77" y="641" name="ITXLMLSW"/>
      <point x="84" y="589" name="ONGZXXDY"/>
      <point x="84" y="349" type="curve" smooth="yes" name="DVLSJWAA"/>
      <point x="84" y="95" name="HUCHSCBQ"/>
      <point x="77" y="40" name="FTCXUFPC"/>
    </contour>
    <contour>
      <point x="156.0" y="66.0" type="move" name="ZWRNCKHQ"/>
      <point x="57" y="0" type="line" name="EFSHOVMG"/>
    </contour>
    <contour>
      <point x="231.0" y="132.0" type="move" name="MJVZATKE"/>
      <point x="156.0" y="66.0" type="line" name="NIRFAUYK"/>
    </contour>
    <contour>
      <point x="57.0" y="680.0" type="move" name="GRZQCAGM"/>
      <point x="156.0" y="618.0" type="line" name="LXMSTDXV"/>
      <point x="254.0" y="680.0" type="line" name="MENRSPSU"/>
    </contour>
    <contour>
      <point x="459.0" y="0.0" type="move" name="RDJQSJBO"/>
      <point x="397.0" y="74.0" type="line" name="DGWJLFZR"/>
      <point x="479.0" y="171.0" type="line" name="NFCLXEKZ"/>
    </contour>
    <contour>
      <point x="156" y="618" type="move" name="DARGRHBN"/>
      <point x="156" y="66" type="line" name="BZBSRBAL"/>
      <point x="397" y="74" type="line" name="NYOGKXYE"/>
    </contour>
  </outline>
</glyph>
<glyph name="M" format="2">
  <advance width="864"/>
  <unicode hex="004D"/>
  <outline>
    <contour>
      <point x="213" y="349" type="curve" smooth="yes" name="PTSPMJHV"/>
      <point x="213" y="399" name="YUZGPUVR"/>
      <point x="213" y="465" name="UZQYMVZP"/>
      <point x="214" y="504" type="curve" name="KAKDSYTJ"/>
      <point x="230" y="460" name="CWOXDNFZ"/>
      <point x="250" y="404" name="AOLHSLVL"/>
      <point x="275" y="331" type="curve" smooth="yes" name="HQSKVGZM"/>
      <point x="361" y="92" name="ZJFBFGIB"/>
      <point x="376" y="39" name="VFWLMOHN"/>
      <point x="386" y="0" type="curve" name="FTWQFNZU"/>
      <point x="467" y="0" type="line" name="ADMEJFFW"/>
      <point x="477" y="39" name="YSYVPRRP"/>
      <point x="493" y="92" name="WJMIAFRI"/>
      <point x="581" y="331" type="curve" smooth="yes" name="YINPWIXT"/>
      <point x="608" y="406" name="LICAFTQN"/>
      <point x="629" y="464" name="FXIKWJHF"/>
      <point x="645" y="509" type="curve" name="ZGCHLAWF"/>
      <point x="646" y="464" name="RMGQLZOE"/>
      <point x="646" y="395" name="FBJDTTMD"/>
      <point x="646" y="349" type="curve" smooth="yes" name="PBQAIGEZ"/>
      <point x="646" y="95" name="MOLEVLZL"/>
      <point x="639" y="40" name="RHHHVKVU"/>
      <point x="619" y="0" type="curve" name="SRCXMWMK"/>
      <point x="807" y="0" type="line" name="TSVXOYGH"/>
      <point x="787" y="40" name="KYWDFPSS"/>
      <point x="780" y="95" name="QZZXFIHY"/>
      <point x="780" y="349" type="curve" smooth="yes" name="PSOBZZTI"/>
      <point x="780" y="589" name="JITEDRGA"/>
      <point x="787" y="641" name="BLWZRRYD"/>
      <point x="807" y="680" type="curve" name="ERECEIIR"/>
      <point x="556" y="680" type="line" name="VPMVFKNC"/>
      <point x="556" y="631" name="RPSBFNPV"/>
      <point x="551" y="584" name="AUCKVPUL"/>
      <point x="463" y="331" type="curve" smooth="yes" name="AHKRUXPL"/>
      <point x="435" y="250" type="line" name="CCFMBDVJ"/>
      <point x="407" y="331" type="line" smooth="yes" name="LLQPDXZW"/>
      <point x="320" y="586" name="APVWCVNK"/>
      <point x="316" y="631" name="FTXVIUQS"/>
      <point x="317" y="680" type="curve" name="FWDCTSRT"/>
      <point x="57" y="680" type="line" name="NNXDXKMS"/>
      <point x="77" y="641" name="UGOQALNJ"/>
      <point x="84" y="589" name="EYPFETBD"/>
      <point x="84" y="349" type="curve" smooth="yes" name="JVLGIIVN"/>
      <point x="84" y="95" name="SWPOBNUF"/>
      <point x="77" y="40" name="PVHCUZBY"/>
      <point x="57" y="0" type="curve" name="DBEFQCYT"/>
      <point x="240" y="0" type="line" name="VSVHJYWX"/>
      <point x="220" y="40" name="UXFQKCVY"/>
      <point x="213" y="95" name="TVNKUTPJ"/>
    </contour>
    <contour>
      <point x="240.0" y="0.0" type="move" name="MULFSODH"/>
      <point x="148.0" y="62.0" type="line" name="TCQYCOJQ"/>
      <point x="57" y="0" type="line" name="CMRVBPXT"/>
    </contour>
    <contour>
      <point x="807.0" y="0.0" type="move" name="OVNMQVHV"/>
      <point x="713.0" y="62.0" type="line" name="PHQTURTS"/>
      <point x="619.0" y="0.0" type="line" name="TGTXDCAV"/>
    </contour>
    <contour>
      <point x="214.0" y="504.0" type="move" name="KYXSLBUU"/>
      <point x="148" y="618" type="line" name="VDWODRNF"/>
      <point x="57" y="680" type="line" name="KFKGHAMG"/>
    </contour>
    <contour>
      <point x="807.0" y="680.0" type="move" name="GLWSIQOP"/>
      <point x="713.0" y="618.0" type="line" name="YGCKLYWJ"/>
      <point x="645.0" y="509.0" type="line" name="ILYDGLQQ"/>
    </contour>
    <contour>
      <point x="148" y="62" type="move" name="EYYRYAFS"/>
      <point x="148" y="618" type="line" name="KEXYAJRA"/>
      <point x="245" y="618" type="line" name="GPXJOLVL"/>
      <point x="430" y="68" type="line" name="POIVYQNH"/>
      <point x="620" y="618" type="line" name="UJKMHOXF"/>
      <point x="713.0" y="618.0" type="line" name="GGQUSHFH"/>
      <point x="713.0" y="62.0" type="line" name="MZJTEDIB"/>
    </contour>
    <contour>
      <point x="317.0" y="680.0" type="move" name="NROVVHPY"/>
      <point x="245.0" y="618.0" type="line" name="LOCPRGIW"/>
      <point x="214.0" y="504.0" type="line" name="NZUHTKJT"/>
    </contour>
    <contour>
      <point x="645.0" y="509.0" type="move" name="GGBHZQVY"/>
      <point x="620.0" y="618.0" type="line" name="OXAXLXEP"/>
      <point x="556.0" y="680.0" type="line" name="IDHVCEZA"/>
    </contour>
    <contour>
      <point x="467.0" y="0.0" type="move" name="GOFDRMUA"/>
      <point x="430.0" y="68.0" type="line" name="DOPXVAEI"/>
      <point x="386.0" y="0.0" type="line" name="JKVXRFXE"/>
    </contour>
    <contour>
      <point x="435.0" y="250.0" type="move" name="XYUNHDGJ"/>
      <point x="430.0" y="68.0" type="line" name="VBEPFZBF"/>
    </contour>
  </outline>
</glyph>
<glyph name="N" format="2">
  <advance width="683"/>
  <unicode hex="004E"/>
  <outline>
    <contour>
      <point x="631" y="0" type="line" name="WUZYZCNV"/>
      <point x="611" y="40" name="DATKHMVM"/>
      <point x="604" y="95" name="XKVGJYBS"/>
      <point x="604" y="349" type="curve" smooth="yes" name="XAVUYZGT"/>
      <point x="604" y="589" name="TCWNSYYR"/>
      <point x="611" y="641" name="IAMPCDXR"/>
      <point x="631" y="680" type="curve" name="JUZRYRIH"/>
      <point x="444" y="680" type="line" name="NRUSBIXS"/>
      <point x="464" y="641" name="IKRPKFTP"/>
      <point x="471" y="589" name="OLUKOOZP"/>
      <point x="471" y="349" type="curve" smooth="yes" name="FWBSWOPL"/>
      <point x="471" y="292" type="line" name="ABIOARXK"/>
      <point x="185" y="680" type="line" name="UUQDOWZM"/>
      <point x="52" y="680" type="line" name="DDYBDDXS"/>
      <point x="72" y="641" name="FJZSQLSZ"/>
      <point x="79" y="589" name="WQFPOMTR"/>
      <point x="79" y="349" type="curve" smooth="yes" name="VRETGZCJ"/>
      <point x="79" y="95" name="RAIZREHM"/>
      <point x="72" y="40" name="XIMLZCYW"/>
      <point x="52" y="0" type="curve" name="SGIZOGKM"/>
      <point x="239" y="0" type="line" name="DLWQVPTP"/>
      <point x="219" y="40" name="TBIBDGBB"/>
      <point x="212" y="95" name="OAZHMPQC"/>
      <point x="212" y="349" type="curve" smooth="yes" name="GHEAGKTO"/>
      <point x="212" y="400" type="line" name="QCUBTJZU"/>
      <point x="508" y="0" type="line" name="SQBLNWKX"/>
    </contour>
    <contour>
      <point x="146.0" y="83.0" type="move" name="EAIAVYID"/>
      <point x="146" y="349" type="line" smooth="yes" name="AAINBQPS"/>
      <point x="146.0" y="499.0" name="WICCVNTX"/>
      <point x="145" y="555" name="HZAICTLB"/>
      <point x="143" y="615" type="curve" name="FRUDQRNB"/>
      <point x="541.0" y="76.0" type="line" name="UUCYVBVS"/>
      <point x="539.0" y="136.0" name="TYBWNZIV"/>
      <point x="538" y="202" name="AMAKJSVE"/>
      <point x="538.0" y="352.0" type="curve" smooth="yes" name="PYUDCUPY"/>
      <point x="538.0" y="597.0" type="line" name="TTNKLDJB"/>
    </contour>
    <contour>
      <point x="52.0" y="680.0" type="move" name="EAVOJOQO"/>
      <point x="143.0" y="615.0" type="line" name="FUNQGDZA"/>
      <point x="185.0" y="680.0" type="line" name="CKYLTDKS"/>
    </contour>
    <contour>
      <point x="212.0" y="400.0" type="move" name="ENBREETW"/>
      <point x="143.0" y="615.0" type="line" name="QCWCVGJV"/>
    </contour>
    <contour>
      <point x="631.0" y="0.0" type="move" name="RJBEOXBF"/>
      <point x="541.0" y="76.0" type="line" name="NUGFEMEK"/>
      <point x="508.0" y="0.0" type="line" name="PWJDHRAQ"/>
    </contour>
    <contour>
      <point x="471.0" y="292.0" type="move" name="CBXMXKGG"/>
      <point x="541.0" y="76.0" type="line" name="PAXSQCYZ"/>
    </contour>
    <contour>
      <point x="239.0" y="0.0" type="move" name="AWFXJMVJ"/>
      <point x="146" y="83" type="line" name="OEVPZKLE"/>
      <point x="52.0" y="0.0" type="line" name="QRNEBORZ"/>
    </contour>
    <contour>
      <point x="444.0" y="680.0" type="move" name="HOGKTDFZ"/>
      <point x="538.0" y="597.0" type="line" name="DENBUGNQ"/>
      <point x="631.0" y="680.0" type="line" name="UVVTSUBU"/>
    </contour>
  </outline>
</glyph>
<glyph name="P" format="2">
  <advance width="588"/>
  <unicode hex="0050"/>
  <outline>
    <contour>
      <point x="57" y="0" type="curve" name="IVEOZZVV"/>
      <point x="254" y="0" type="line" name="ISBTLJRJ"/>
      <point x="238" y="33" name="HYSFGEOF"/>
      <point x="230" y="76" name="SOAZXVZI"/>
      <point x="228" y="230" type="curve" name="SMLTHHCB"/>
      <point x="316" y="230" type="line" smooth="yes" name="BSSITRTG"/>
      <point x="472" y="230" name="ZYUDKONR"/>
      <point x="568" y="321" name="VDUOLQKH"/>
      <point x="568" y="456" type="curve" smooth="yes" name="VENVCAIL"/>
      <point x="568" y="591" name="ZYKJHWGI"/>
      <point x="472" y="680" name="DDYVFQMK"/>
      <point x="316" y="680" type="curve" smooth="yes" name="DRDBORQV"/>
      <point x="57" y="680" type="line" name="FQLCROGY"/>
      <point x="77" y="641" name="WRGYYAMA"/>
      <point x="84" y="589" name="YWAZQZBN"/>
      <point x="84" y="349" type="curve" smooth="yes" name="KEAQXPDB"/>
      <point x="84" y="95" name="JHLVSQIP"/>
      <point x="77" y="40" name="BRSXBOGM"/>
    </contour>
    <contour>
      <point x="421" y="454" type="curve" smooth="yes" name="PPZGMSYT"/>
      <point x="421" y="394" name="JOKACSYY"/>
      <point x="383" y="355" name="BCTOBQZT"/>
      <point x="318" y="355" type="curve" smooth="yes" name="OTUCIWVA"/>
      <point x="227" y="355" type="line" name="ECORNEQX"/>
      <point x="227" y="443" name="SKCPPNGH"/>
      <point x="228" y="508" name="HBZBWYFP"/>
      <point x="231" y="555" type="curve" name="UFRCASHU"/>
      <point x="318" y="555" type="line" smooth="yes" name="CXPJQMOK"/>
      <point x="383" y="555" name="CYIDIYDM"/>
      <point x="421" y="514" name="PFVWFUKG"/>
    </contour>
    <contour>
      <point x="156.0" y="292.0" type="move" name="XPHIOYUB"/>
      <point x="317" y="292" type="line" smooth="yes" name="PIHLOZVJ"/>
      <point x="428" y="292" name="XKIDYGEK"/>
      <point x="494" y="358" name="ONVLJSNS"/>
      <point x="494" y="455" type="curve" smooth="yes" name="TFSJXNTD"/>
      <point x="494" y="552" name="LQFLYRVB"/>
      <point x="428" y="618" name="MXRZRYJT"/>
      <point x="317" y="618" type="curve" smooth="yes" name="JCXZNUWA"/>
      <point x="156.0" y="618.0" type="line" name="MSDXNXFW"/>
      <point x="156.0" y="62.0" type="line" name="FDIELLBI"/>
    </contour>
    <contour>
      <point x="227.0" y="355.0" type="move" name="BHAZYCJU"/>
      <point x="156.0" y="292.0" type="line" name="LKPQIGAZ"/>
      <point x="228.0" y="230.0" type="line" name="CGSXIVVA"/>
    </contour>
    <contour>
      <point x="254.0" y="0.0" type="move" name="JRLMZRMB"/>
      <point x="156.0" y="62.0" type="line" name="VWUMAPUP"/>
      <point x="57" y="0" type="line" name="XJBUXPFQ"/>
    </contour>
    <contour>
      <point x="57" y="680" type="move" name="ECUUNSVW"/>
      <point x="156.0" y="618.0" type="line" name="UHMWTTEK"/>
      <point x="231.0" y="555.0" type="line" name="WZGBHWZC"/>
    </contour>
  </outline>
</glyph>
<glyph name="S" format="2">
  <advance width="533"/>
  <unicode hex="0053"/>
  <outline>
    <contour>
      <point x="354" y="184" type="curve" smooth="yes" name="KXCYJCUL"/>
      <point x="354" y="144" name="UYVIAXBU"/>
      <point x="322" y="113" name="NFDEZUFD"/>
      <point x="254" y="113" type="curve" smooth="yes" name="KOFIRWQM"/>
      <point x="189" y="113" name="AUESRPQP"/>
      <point x="111" y="135" name="XJUWYXKK"/>
      <point x="52" y="181" type="curve" name="MVBYHZBE"/>
      <point x="52" y="15" type="line" name="MBHTEPCY"/>
      <point x="119" y="-3" name="UXMIANLD"/>
      <point x="182" y="-13" name="DAUFLZTU"/>
      <point x="242" y="-13" type="curve" smooth="yes" name="JSKVWBBK"/>
      <point x="394" y="-14" name="RCZAIVVZ"/>
      <point x="503" y="60" name="QHODYGEX"/>
      <point x="503" y="200" type="curve" smooth="yes" name="YRSRLOKI"/>
      <point x="503" y="399" name="QPNKHQVB"/>
      <point x="199" y="389" name="MPNPZYTK"/>
      <point x="199" y="498" type="curve" smooth="yes" name="PAZZTPOD"/>
      <point x="199" y="536" name="GCZHOKOJ"/>
      <point x="228" y="566" name="JRVISHMB"/>
      <point x="290" y="566" type="curve" smooth="yes" name="CIYVWSZC"/>
      <point x="349" y="566" name="IBBTRCZS"/>
      <point x="420" y="544" name="XIIXDEMD"/>
      <point x="474" y="500" type="curve" name="EKZMXCVF"/>
      <point x="474" y="664" type="line" name="AQWSYPXP"/>
      <point x="413" y="681" name="OGAMWLBV"/>
      <point x="357" y="690" name="KCPTFDVX"/>
      <point x="303" y="690" type="curve" smooth="yes" name="TADKNXZM"/>
      <point x="150" y="690" name="OTIANTSU"/>
      <point x="48" y="614" name="PBNHVKZS"/>
      <point x="48" y="482" type="curve" smooth="yes" name="DQVQIGVS"/>
      <point x="48" y="278" name="CZLJLCCY"/>
      <point x="354" y="292" name="QPKRHEYF"/>
    </contour>
    <contour>
      <point x="412" y="608" type="move" smooth="yes" name="HGAOADUK"/>
      <point x="373" y="621" name="DIKFFTRL"/>
      <point x="333" y="628" name="LBDKAYGN"/>
      <point x="296" y="628" type="curve" smooth="yes" name="OWIVUKTQ"/>
      <point x="189" y="628" name="BXEWGFUP"/>
      <point x="124" y="575" name="ZWTUNPCV"/>
      <point x="124" y="490" type="curve" smooth="yes" name="ZSDEAYMY"/>
      <point x="124" y="334" name="PIUGYYLQ"/>
      <point x="428" y="346" name="OGWZXJWZ"/>
      <point x="428" y="192" type="curve" smooth="yes" name="VJHJZLKX"/>
      <point x="428" y="102" name="MDLAWNKL"/>
      <point x="358" y="50" name="SWWNJWIN"/>
      <point x="248" y="50" type="curve" smooth="yes" name="PJHMPSFO"/>
      <point x="206" y="50" name="GCTGNPNH"/>
      <point x="159" y="57" name="YUGZKYSW"/>
      <point x="114" y="72" type="curve" smooth="yes" name="HLYAXCSJ"/>
    </contour>
    <contour>
      <point x="474.0" y="664.0" type="move" name="XYGWLLJZ"/>
      <point x="412.0" y="608.0" type="line" name="KMXAMPOA"/>
      <point x="474.0" y="500.0" type="line" name="NRFSNWVX"/>
    </contour>
    <contour>
      <point x="52.0" y="15.0" type="move" name="SFQYRYIF"/>
      <point x="114.0" y="72.0" type="line" name="CJMHXZGC"/>
      <point x="52.0" y="181.0" type="line" name="NKUKGJGC"/>
    </contour>
  </outline>
</glyph>
<glyph name="T" format="2">
  <advance width="549"/>
  <unicode hex="0054"/>
  <outline>
    <contour>
      <point x="176" y="0" type="curve" name="DLBPRVTQ"/>
      <point x="373" y="0" type="line" name="ISPZZFTS"/>
      <point x="353" y="40" name="OWITCNZT"/>
      <point x="346" y="95" name="AYQGSGEB"/>
      <point x="346" y="349" type="curve" smooth="yes" name="ROBJNEZK"/>
      <point x="346" y="442" name="KPFMBARD"/>
      <point x="347" y="506" name="DOXVVYTM"/>
      <point x="349" y="553" type="curve" name="ZMGYKEGQ"/>
      <point x="455" y="550" name="CGJIJQDS"/>
      <point x="495" y="539" name="WMIIGKAN"/>
      <point x="524" y="524" type="curve" name="AUXEPBWD"/>
      <point x="524" y="680" type="line" name="TPNEGRDJ"/>
      <point x="25" y="680" type="line" name="ORAIUDVY"/>
      <point x="25" y="524" type="line" name="GIVUAWSQ"/>
      <point x="54" y="539" name="BPGCRTWU"/>
      <point x="93" y="550" name="LEEGKRZE"/>
      <point x="200" y="553" type="curve" name="OXYXZVPR"/>
      <point x="202" y="506" name="EIZWKIUW"/>
      <point x="203" y="442" name="CZBQABZB"/>
      <point x="203" y="349" type="curve" smooth="yes" name="RUCPUZMM"/>
      <point x="203" y="95" name="CMZWJRPS"/>
      <point x="196" y="40" name="SIEBQDQW"/>
    </contour>
    <contour>
      <point x="462" y="616" type="move" name="RLUZWNJF"/>
      <point x="274" y="616" type="line" name="UZGLQPMJ"/>
      <point x="87" y="616" type="line" name="YSFMWLVM"/>
    </contour>
    <contour>
      <point x="274.0" y="616.0" type="move" name="HRXRESDS"/>
      <point x="274.0" y="62.0" type="line" name="WMPPKZET"/>
    </contour>
    <contour>
      <point x="373.0" y="0.0" type="move" name="JRLMZRMB"/>
      <point x="274.0" y="62.0" type="line" name="VWUMAPUP"/>
      <point x="176.0" y="0.0" type="line" name="XJBUXPFQ"/>
    </contour>
    <contour>
      <point x="524.0" y="680.0" type="move" name="QFBFVVBQ"/>
      <point x="462.0" y="616.0" type="line" name="GWSCPFCL"/>
      <point x="524.0" y="524.0" type="line" name="KYIHYDAS"/>
    </contour>
    <contour>
      <point x="25.0" y="524.0" type="move" name="RWPSSONW"/>
      <point x="87.0" y="616.0" type="line" name="QHYBUSFA"/>
      <point x="25.0" y="680.0" type="line" name="CNOHHEZW"/>
    </contour>
    <contour>
      <point x="200.0" y="553.0" type="move" name="HYTDVHZU"/>
      <point x="274.0" y="616.0" type="line" name="IRWMODBF"/>
      <point x="349.0" y="553.0" type="line" name="BCNEJYZE"/>
    </contour>
  </outline>
</glyph>
<glyph name="V" format="2">
  <advance width="652"/>
  <unicode hex="0056"/>
  <outline>
    <contour>
      <point x="290" y="331" type="line" smooth="yes" name="SLBKUCOR"/>
      <point x="202" y="586" name="EEAQSBOR"/>
      <point x="195" y="631" name="KQWRXTUU"/>
      <point x="216" y="680" type="curve" name="YKHVKMDQ"/>
      <point x="0" y="680" type="line" name="RBXTGGMI"/>
      <point x="29" y="640" name="ALBDBZVE"/>
      <point x="52" y="585" name="JKRJMTIT"/>
      <point x="144" y="331" type="curve" smooth="yes" name="ZNGOIIOJ"/>
      <point x="230" y="92" name="JTMEYQOZ"/>
      <point x="245" y="39" name="TKMMZCJS"/>
      <point x="251" y="0" type="curve" name="UCOPTTGS"/>
      <point x="404" y="0" type="line" name="IBFHITIL"/>
      <point x="405" y="39" name="ACSQAUUE"/>
      <point x="422" y="92" name="RGCYRPNA"/>
      <point x="508" y="331" type="curve" smooth="yes" name="YIMFTJFI"/>
      <point x="600" y="585" name="GFNXEXSX"/>
      <point x="623" y="640" name="XWKUFNGA"/>
      <point x="652" y="680" type="curve" name="XYVLWLYA"/>
      <point x="448" y="680" type="line" name="XFEXOZAS"/>
      <point x="469" y="631" name="PTSLSOQD"/>
      <point x="461" y="585" name="IAYYXWYK"/>
      <point x="374" y="331" type="curve" smooth="yes" name="VNDVSBXW"/>
      <point x="332" y="209" type="line" name="VNNAYTEH"/>
    </contour>
    <contour>
      <point x="448.0" y="680.0" type="move" name="VYPIWFWC"/>
      <point x="535.0" y="610.0" type="line" name="HDOGQIGX"/>
      <point x="652.0" y="680.0" type="line" name="NZGOSKZA"/>
    </contour>
    <contour>
      <point x="0.0" y="680.0" type="move" name="CJOGMKGO"/>
      <point x="123.0" y="610.0" type="line" name="PSATSMVU"/>
      <point x="216.0" y="680.0" type="line" name="SYRAAAFE"/>
    </contour>
    <contour>
      <point x="123" y="610" type="move" name="HPIGSPPQ"/>
      <point x="217" y="331" type="line" name="ZUCTTFWP"/>
      <point x="244" y="256" name="DNSSNUVC"/>
      <point x="276" y="162" name="WLEUSDPC"/>
      <point x="297" y="90" type="curve" name="RMFRABWP"/>
      <point x="361" y="90" type="line" name="HOBEWAJM"/>
      <point x="382" y="162" name="NFPKCTSZ"/>
      <point x="414" y="256" name="SSUOLANM"/>
      <point x="441" y="331" type="curve" smooth="yes" name="XZVQMVQR"/>
      <point x="535" y="610" type="line" name="YLZJPCFD"/>
    </contour>
    <contour>
      <point x="251.0" y="0.0" type="move" name="GUAYFBHG"/>
      <point x="297.0" y="90.0" type="line" name="TLQLLYHG"/>
      <point x="332.0" y="209.0" type="line" name="XEQORZFB"/>
      <point x="361.0" y="90.0" type="line" name="TVJDFVVV"/>
      <point x="404.0" y="0.0" type="line" name="JKQTLTGN"/>
    </contour>
  </outline>
</glyph>
<glyph name="backslash" format="2">
  <advance width="469"/>
  <unicode hex="005C"/>
  <outline>
    <contour>
      <point x="455" y="-75" type="line" name="VFDDPBXL"/>
      <point x="155" y="750" type="line" name="RPRAXUEC"/>
      <point x="14" y="750" type="line" name="NJJSFWOF"/>
      <point x="314" y="-75" type="line" name="WSHOHPKJ"/>
    </contour>
    <contour>
      <point x="106.0" y="688.0" type="move" name="GXLIXLTU"/>
      <point x="362.0" y="-13.0" type="line" name="VBMVDPNQ"/>
    </contour>
    <contour>
      <point x="455.0" y="-75.0" type="move" name="XJBUXPFQ"/>
      <point x="362.0" y="-13.0" type="line" name="VWUMAPUP"/>
      <point x="314.0" y="-75.0" type="line" name="JRLMZRMB"/>
    </contour>
    <contour>
      <point x="14.0" y="750.0" type="move" name="SFLOLYUF"/>
      <point x="106.0" y="688.0" type="line" name="WZGBHWZC"/>
      <point x="155.0" y="750.0" type="line" name="ECUUNSVW"/>
    </contour>
  </outline>
</glyph>
<glyph name="asciicircum" format="2">
  <advance width="560"/>
  <unicode hex="005E"/>
  <outline>
    <contour>
      <point x="259" y="478" type="line"/>
      <point x="379" y="263" type="line"/>
      <point x="525" y="263" type="line"/>
      <point x="279" y="694" type="line"/>
    </contour>
    <contour>
      <point x="299.0" y="478.0" type="line"/>
      <point x="279.0" y="694.0" type="line"/>
      <point x="33.0" y="263.0" type="line"/>
      <point x="179.0" y="263.0" type="line"/>
    </contour>
  </outline>
</glyph>
<glyph name="grave" format="2">
  <advance width="408"/>
  <unicode hex="0060"/>
  <anchor x="0" y="517" name="top"/>
  <anchor x="254" y="517" name="center"/>
  <outline>
    <contour>
      <point x="328.0" y="584.0" type="line"/>
      <point x="194.0" y="584.0" type="line"/>
      <point x="60.0" y="790.0" type="line"/>
      <point x="219.0" y="790.0" type="line"/>
    </contour>
  </outline>
</glyph>
<glyph name="i" format="2">
  <advance width="288"/>
  <unicode hex="0069"/>
  <outline>
    <contour>
      <point x="49" y="0" type="curve" name="DIWFCPUQ"/>
      <point x="239" y="0" type="line" name="LNYNSWOX"/>
      <point x="219" y="40" name="DRYGFNSW"/>
      <point x="212" y="85" name="FVAIFIML"/>
      <point x="212" y="299" type="curve" smooth="yes" name="WPNEKTOD"/>
      <point x="212" y="499" name="HFKOALEY"/>
      <point x="219" y="541" name="UJPCAQWY"/>
      <point x="239" y="580" type="curve" name="LNZLXGTH"/>
      <point x="49" y="580" type="line" name="PWHXZNTV"/>
      <point x="69" y="541" name="KXAFDTVA"/>
      <point x="76" y="499" name="CYVDVRKP"/>
      <point x="76" y="299" type="curve" smooth="yes" name="CXDUNYSV"/>
      <point x="76" y="85" name="GDCYPFZD"/>
      <point x="69" y="40" name="GYIHOSOR"/>
    </contour>
    <contour>
      <point x="144.0" y="497.0" type="move" name="PODUNWHS"/>
      <point x="144.0" y="83.0" type="line" name="WQYTSZNA"/>
    </contour>
    <contour>
      <point x="239.0" y="0.0" type="move" name="ZWKXNUEA"/>
      <point x="144.0" y="83.0" type="line" name="RDIFSHSB"/>
      <point x="49.0" y="0.0" type="line" name="MZJFLFDW"/>
    </contour>
    <contour>
      <point x="49.0" y="580.0" type="move" name="XQTQWBNC"/>
      <point x="144.0" y="497.0" type="line" name="PEFMEUSE"/>
      <point x="239.0" y="580.0" type="line" name="GIJXEVTP"/>
    </contour>
  </outline>
</glyph>
<glyph name="bar" format="2">
  <advance width="385"/>
  <unicode hex="007C"/>
  <outline>
    <contour>
      <point x="123.0" y="-75.0" type="line"/>
      <point x="262.0" y="-75.0" type="line"/>
      <point x="262.0" y="750.0" type="line"/>
      <point x="123.0" y="750.0" type="line"/>
    </contour>
  </outline>
</glyph>
<glyph name="exclamdown" format="2">
  <advance width="289"/>
  <unicode hex="00A1"/>
  <outline>
    <contour>
      <point x="198" y="423" type="line" name="OYDAZZNX"/>
      <point x="211" y="103" name="JLMCDYKS"/>
      <point x="219" y="66" name="MDHVZQUS"/>
      <point x="238" y="0" type="curve" name="UUBBKEHT"/>
      <point x="51" y="0" type="line" name="FEEGCBME"/>
      <point x="70" y="66" name="TNDHLIGH"/>
      <point x="78" y="103" name="JILCHBBH"/>
      <point x="91" y="423" type="curve" name="QOXJXDAT"/>
    </contour>
    <contour>
      <point x="225" y="680" type="line" name="ZESEBWPC"/>
      <point x="64" y="680" type="line" name="XILEFSLX"/>
      <point x="64" y="519" type="line" name="OOLRDEMH"/>
      <point x="225" y="519" type="line" name="WPQYCJKS"/>
    </contour>
    <contour>
      <point x="225" y="519" type="move" name="KFGIGMOD"/>
      <point x="145" y="599" type="line" name="PHPTNCMS"/>
      <point x="64" y="680" type="line" name="JYLHONKL"/>
    </contour>
    <contour>
      <point x="225" y="680" type="move" name="GMKLNRTI"/>
      <point x="145" y="599" type="line" name="BGIAKFXI"/>
      <point x="64" y="519" type="line" name="DUAAOXAS"/>
    </contour>
    <contour>
      <point x="145.0" y="377.0" type="move" name="INZNHOIJ"/>
      <point x="145.0" y="62.0" type="line" name="IRHJFHBZ"/>
    </contour>
    <contour>
      <point x="91.0" y="423.0" type="move" name="JRLMZRMB"/>
      <point x="145.0" y="377.0" type="line" name="VWUMAPUP"/>
      <point x="198.0" y="423.0" type="line" name="XJBUXPFQ"/>
    </contour>
    <contour>
      <point x="238.0" y="0.0" type="move" name="ECUUNSVW"/>
      <point x="145.0" y="62.0" type="line" name="WZGBHWZC"/>
      <point x="51.0" y="0.0" type="line" name="SFLOLYUF"/>
    </contour>
  </outline>
</glyph>
<glyph name="sterling" format="2">
  <advance width="566"/>
  <unicode hex="00A3"/>
  <outline>
    <contour>
      <point x="60" y="277" type="line" name="GNYZIYKZ"/>
      <point x="135" y="277" type="line" name="YQMCXPLM"/>
      <point x="142" y="244" name="QGLACKHP"/>
      <point x="147" y="215" name="BPNEIIUN"/>
      <point x="147" y="194" type="curve" smooth="yes" name="SVGGRHDU"/>
      <point x="147" y="149" name="HGOVVUPK"/>
      <point x="141.0" y="127.0" name="BLVJPFOY"/>
      <point x="97" y="127" type="curve" smooth="yes" name="TYVMRUIW"/>
      <point x="60" y="127" type="line" name="ZDGCYRDO"/>
      <point x="60" y="0" type="line" name="COUTXMFK"/>
      <point x="506" y="0" type="line" name="SSIMWMWT"/>
      <point x="526" y="171" type="line" name="ZYSSYJGT"/>
      <point x="487" y="139" name="RRJVWIGZ"/>
      <point x="440" y="129" name="LROSPVZU"/>
      <point x="278" y="127" type="curve" name="PJVHPSNC"/>
      <point x="287" y="147" name="NFZYIYKD"/>
      <point x="291" y="171" name="IXNOTRJS"/>
      <point x="291" y="199" type="curve" smooth="yes" name="RCXMBWCG"/>
      <point x="291" y="224" name="ESVFBXLZ"/>
      <point x="288" y="251" name="EKYGQLLE"/>
      <point x="284" y="277" type="curve" name="SRPAPNLL"/>
      <point x="466" y="277" type="line" name="IHTLWULB"/>
      <point x="476" y="389" type="line" name="ABDKWZFZ"/>
      <point x="261" y="389" type="line" name="QXGQURTZ"/>
      <point x="255" y="419" name="CCXKHYEY"/>
      <point x="250" y="447" name="YCQBDLMX"/>
      <point x="250" y="469" type="curve" smooth="yes" name="TAPAVHJJ"/>
      <point x="250" y="539" name="AYMBBQYS"/>
      <point x="291" y="568" name="ZOCWHZKO"/>
      <point x="347" y="568" type="curve" smooth="yes" name="XQUZHBEG"/>
      <point x="397" y="568" name="QPDZYFBU"/>
      <point x="439" y="549" name="ZQWHVHMF"/>
      <point x="501" y="500" type="curve" name="IATEXMOB"/>
      <point x="501" y="666" type="line" name="DMYNLLOT"/>
      <point x="316" y="729" name="UEUKIMRS"/>
      <point x="105" y="672" name="JVCYDNOK"/>
      <point x="105" y="481" type="curve" smooth="yes" name="KXFTDVMQ"/>
      <point x="105" y="451" name="LQPAAETK"/>
      <point x="108" y="419" name="SVXSFGXQ"/>
      <point x="113" y="389" type="curve" name="RYEOSLLP"/>
      <point x="60" y="389" type="line" name="SOOCYIVE"/>
    </contour>
    <contour>
      <point x="439" y="613" type="move" smooth="yes" name="MPHZTBGS"/>
      <point x="410" y="624" name="LFVLEKQY"/>
      <point x="381" y="629" name="JZBJJAUU"/>
      <point x="352" y="630" type="curve" smooth="yes" name="NYZZRWKW"/>
      <point x="256" y="630" name="OZSOIVNC"/>
      <point x="178" y="581" name="IXLNIAEN"/>
      <point x="178" y="475" type="curve" smooth="yes" name="YJATDBRT"/>
      <point x="178" y="432" name="SVNPLEWM"/>
      <point x="188" y="382" name="GTMNVKIS"/>
      <point x="198" y="333" type="curve" smooth="yes" name="YKOZYUOE"/>
      <point x="209" y="284" name="SMMQNWGS"/>
      <point x="219" y="235" name="KALCDPGX"/>
      <point x="219" y="196" type="curve" smooth="yes" name="QRCALLOH"/>
      <point x="219" y="100" name="VFDIIYZV"/>
      <point x="182" y="74" name="LZQSVLJS"/>
      <point x="122" y="64" type="curve" name="CJKAFOXA"/>
      <point x="202" y="64" type="line" name="MXTGVOPI"/>
      <point x="315" y="64" name="KBHHTTRT"/>
      <point x="388" y="66" name="WFZJFFPS"/>
      <point x="444" y="72" type="curve" smooth="yes" name="KRORGWFE"/>
    </contour>
    <contour>
      <point x="112" y="333" type="move" name="WPZMYQQB"/>
      <point x="198" y="333" type="line" name="IKMWJQDT"/>
      <point x="414" y="333" type="line" name="WUDKTHCN"/>
    </contour>
    <contour>
      <point x="501.0" y="666.0" type="move" name="RGDZPHWV"/>
      <point x="439.0" y="613.0" type="line" name="CGODJSVD"/>
      <point x="501.0" y="500.0" type="line" name="YZLUPAGG"/>
    </contour>
    <contour>
      <point x="526.0" y="171.0" type="move" name="RAOKLWOD"/>
      <point x="444.0" y="72.0" type="line" name="YLQFWRCH"/>
      <point x="506.0" y="0.0" type="line" name="JZNWMFIN"/>
    </contour>
    <contour>
      <point x="60.0" y="0.0" type="move" name="PXBZXFJK"/>
      <point x="122.0" y="64.0" type="line" name="TTDSTZBB"/>
      <point x="60.0" y="127.0" type="line" name="GNBWBHTO"/>
    </contour>
    <contour>
      <point x="60.0" y="277.0" type="move" name="UQBYWZDD"/>
      <point x="112.0" y="333.0" type="line" name="LRSBXNNG"/>
      <point x="60.0" y="389.0" type="line" name="OHNKVPBU"/>
    </contour>
    <contour>
      <point x="476.0" y="389.0" type="move" name="EPULRCMP"/>
      <point x="414.0" y="333.0" type="line" name="LZXILAAQ"/>
      <point x="466.0" y="277.0" type="line" name="HZYAMOIX"/>
    </contour>
    <contour>
      <point x="261.0" y="389.0" type="move" name="WQPOSXFQ"/>
      <point x="198.0" y="333.0" type="line" name="HESFWGNI"/>
      <point x="135.0" y="277.0" type="line" name="FCLWVQNI"/>
    </contour>
    <contour>
      <point x="113.0" y="389.0" type="move" name="NEPVLHIA"/>
      <point x="198.0" y="333.0" type="line" name="AMTDFPQC"/>
      <point x="284.0" y="277.0" type="line" name="PQMWCJHX"/>
    </contour>
    <contour>
      <point x="122" y="64" type="move" name="FFSJTBSH"/>
      <point x="191.0" y="64.0" name="DVKYCLZH"/>
      <point x="255.0" y="81.0" name="GHQZBYFT"/>
      <point x="278" y="127" type="curve" name="UMTJADFL"/>
    </contour>
  </outline>
</glyph>
<glyph name="yen" format="2">
  <advance width="633"/>
  <unicode hex="00A5"/>
  <outline>
    <contour>
      <point x="78" y="106" type="line" name="YXRBCVUB"/>
      <point x="241" y="106" type="line" name="JCGLULDG"/>
      <point x="237" y="47" name="VVGQLBYJ"/>
      <point x="230" y="21" name="BHGHCPZT"/>
      <point x="219" y="0" type="curve" name="UUEIAYNZ"/>
      <point x="416" y="0" type="line" name="PLDKPMUD"/>
      <point x="405" y="21" name="SJAEYJXZ"/>
      <point x="398" y="47" name="UPWGJERY"/>
      <point x="394" y="106" type="curve" name="IGICIXIB"/>
      <point x="557" y="106" type="line" name="CJRRUVMF"/>
      <point x="557" y="211" type="line" name="ILUIMFMU"/>
      <point x="390" y="211" type="line" name="JTKHGHLU"/>
      <point x="389" y="266" type="line" name="KHQIZJFI"/>
      <point x="557" y="266" type="line" name="TPYRWNWR"/>
      <point x="557" y="371" type="line" name="RFXDFFLF"/>
      <point x="433" y="371" type="line" name="JGJVUMTH"/>
      <point x="557" y="602" name="SEKYBUID"/>
      <point x="588" y="641" name="ZZMVIIXP"/>
      <point x="623" y="680" type="curve" name="YPHFYLWD"/>
      <point x="417" y="680" type="line" name="XIGAVSRS"/>
      <point x="429" y="636" name="XGRIUMBH"/>
      <point x="421" y="612" name="YEXDLSJT"/>
      <point x="318" y="427" type="curve" name="BDZJPQXH"/>
      <point x="215" y="613" name="QXICOMNC"/>
      <point x="211" y="636" name="YADBKYZY"/>
      <point x="223" y="680" type="curve" name="MSUHVPMQ"/>
      <point x="10" y="680" type="line" name="SLODOOPD"/>
      <point x="45" y="640" name="BSSCSSJQ"/>
      <point x="77" y="602" name="LFPTHVDN"/>
      <point x="201" y="371" type="curve" name="TUTWIHKG"/>
      <point x="78" y="371" type="line" name="JFFPSYXT"/>
      <point x="78" y="266" type="line" name="JHFJBNKC"/>
      <point x="246" y="266" type="line" name="LEUUHQOC"/>
      <point x="245" y="211" type="line" name="GOHDTGRQ"/>
      <point x="78" y="211" type="line" name="BXJWVSTL"/>
    </contour>
    <contour>
      <point x="318" y="62" type="move" name="ZQICQUVH"/>
      <point x="318.0" y="290.0" type="line" name="SDZABPHW"/>
      <point x="318" y="427" type="line" name="CBAEFGZT"/>
    </contour>
    <contour>
      <point x="141" y="618" type="move" name="LCVLISYN"/>
      <point x="303" y="318" type="line" name="YCLOVNXI"/>
      <point x="318" y="290" type="line" name="TBZMFCBX"/>
      <point x="333" y="318" type="line" name="MTFYLPSG"/>
      <point x="495" y="618" type="line" name="EEUMVHZY"/>
    </contour>
    <contour>
      <point x="505.0" y="158.0" type="move" name="QHXOZSHF"/>
      <point x="130.0" y="158.0" type="line" name="QOGAILGT"/>
    </contour>
    <contour>
      <point x="416.0" y="0.0" type="move" name="JRLMZRMB"/>
      <point x="318.0" y="62.0" type="line" name="VWUMAPUP"/>
      <point x="219.0" y="0.0" type="line" name="XJBUXPFQ"/>
    </contour>
    <contour>
      <point x="10.0" y="680.0" type="move" name="ECUUNSVW"/>
      <point x="141.0" y="618.0" type="line" name="WZGBHWZC"/>
      <point x="223.0" y="680.0" type="line" name="SFLOLYUF"/>
    </contour>
    <contour>
      <point x="417.0" y="680.0" type="move" name="NUKKCNGE"/>
      <point x="495.0" y="618.0" type="line" name="POROMZGU"/>
      <point x="623.0" y="680.0" type="line" name="FQNYHCGX"/>
    </contour>
    <contour>
      <point x="500" y="630" type="move" name="BVOZKWAI"/>
    </contour>
    <contour>
      <point x="557.0" y="371.0" type="move" name="SZJYRJUG"/>
      <point x="505.0" y="318.0" type="line" name="IUGKDUAB"/>
      <point x="557.0" y="266.0" type="line" name="HQFMAYTQ"/>
    </contour>
    <contour>
      <point x="557.0" y="211.0" type="move" name="JXUGLWJU"/>
      <point x="505.0" y="158.0" type="line" name="PDNQWYUK"/>
      <point x="557.0" y="106.0" type="line" name="YNCTEUNX"/>
    </contour>
    <contour>
      <point x="78.0" y="266.0" type="move" name="PQJZOEWC"/>
      <point x="130.0" y="318.0" type="line" name="FHKCUIKB"/>
      <point x="78.0" y="371.0" type="line" name="YFHHXFPQ"/>
    </contour>
    <contour>
      <point x="78.0" y="106.0" type="move" name="DWBHGAKW"/>
      <point x="130.0" y="158.0" type="line" name="FFFIPKWP"/>
      <point x="78.0" y="211.0" type="line" name="NRQPJBMA"/>
    </contour>
    <contour>
      <point x="303.0" y="318.0" type="move" name="TEKTNMRJ"/>
      <point x="130" y="318" type="line" name="FIFUANTO"/>
    </contour>
    <contour>
      <point x="505" y="318" type="move" name="IHWOVVPY"/>
      <point x="333.0" y="318.0" type="line" name="REGCAGEO"/>
    </contour>
    <contour>
      <point x="201.0" y="371.0" type="move" name="SXFUORQM"/>
      <point x="303.0" y="318.0" type="line" name="DRXWPLDC"/>
      <point x="246.0" y="266.0" type="line" name="SZQDGAMC"/>
    </contour>
    <contour>
      <point x="389.0" y="266.0" type="move" name="HIRRIURM"/>
      <point x="333.0" y="318.0" type="line" name="YPEGRYFW"/>
      <point x="433.0" y="371.0" type="line" name="KXKXKHSN"/>
    </contour>
    <contour>
      <point x="245.0" y="211.0" type="move" name="JPWSCQHH"/>
      <point x="318" y="158" type="line" name="IOXDEKMI"/>
      <point x="394.0" y="106.0" type="line" name="ZVUKINLQ"/>
    </contour>
    <contour>
      <point x="241.0" y="106.0" type="move" name="JQXYCVMK"/>
      <point x="318.0" y="158.0" type="line" name="FRDSZZOY"/>
      <point x="390.0" y="211.0" type="line" name="OBZRWTBP"/>
    </contour>
  </outline>
</glyph>
<glyph name="section" format="2">
  <advance width="505"/>
  <unicode hex="00A7"/>
  <outline>
    <contour>
      <point x="454" y="64" type="curve" smooth="yes" name="SRFNBDBY"/>
      <point x="454" y="122" name="UMDROQYO"/>
      <point x="421" y="153" name="IZDOJPDN"/>
      <point x="385" y="174" type="curve" name="QFQSFFXE"/>
      <point x="435" y="207" name="MDCHTWSB"/>
      <point x="465" y="257" name="NBWHIQEF"/>
      <point x="465" y="312" type="curve" name="VNGHFVPX"/>
      <point x="465" y="477" name="YRRSTOAB"/>
      <point x="213" y="469" name="GXOWNGKP"/>
      <point x="213" y="533" type="curve" smooth="yes" name="CNWZTFSJ"/>
      <point x="213" y="557" name="NORCEAYI"/>
      <point x="238" y="572" name="FJXNLSDZ"/>
      <point x="282" y="572" type="curve" smooth="yes" name="VLXYWCEP"/>
      <point x="328" y="572" name="QUOEOOYG"/>
      <point x="377" y="554" name="LVPNHAKR"/>
      <point x="429" y="522" type="curve" name="EWSERFAV"/>
      <point x="429" y="670" type="line" name="MWMCBXWT"/>
      <point x="229" y="728" name="SOGAUCHX"/>
      <point x="62" y="657" name="GHCMHZDD"/>
      <point x="62" y="510" type="curve" smooth="yes" name="SCDVIWDO"/>
      <point x="62" y="458" name="BDINQTUT"/>
      <point x="87" y="426" name="UIUQODGF"/>
      <point x="118" y="405" type="curve" name="ZLFDWFLG"/>
      <point x="69" y="371" name="VQJOZMDA"/>
      <point x="39" y="322" name="OGLCSEOO"/>
      <point x="39" y="267" type="curve" name="WKLEFFJN"/>
      <point x="39" y="103" name="MNCQDSEW"/>
      <point x="303" y="111" name="WDUXWSFT"/>
      <point x="303" y="48" type="curve" smooth="yes" name="DSCGOADL"/>
      <point x="303" y="23" name="WKCYGAYB"/>
      <point x="276" y="9" name="VAGWRQZB"/>
      <point x="228" y="9" type="curve" smooth="yes" name="LCQLPZKG"/>
      <point x="177" y="9" name="FHHBTVSA"/>
      <point x="124" y="27" name="SVRLCBWN"/>
      <point x="67" y="60" type="curve" name="FOXVNBZK"/>
      <point x="67" y="-89" type="line" name="DQQTNPNU"/>
      <point x="278" y="-156" name="JNPPXRRN"/>
      <point x="454" y="-76" name="DJVRNGCU"/>
    </contour>
    <contour>
      <point x="332" y="286" type="curve" smooth="yes" name="NSUODBVT"/>
      <point x="332" y="257" name="VJNFODQI"/>
      <point x="306" y="235" name="UQFZMQDI"/>
      <point x="261" y="235" type="curve" smooth="yes" name="MKVDZPQO"/>
      <point x="209" y="235" name="IXVZVLOU"/>
      <point x="172" y="262" name="NFLHKILQ"/>
      <point x="172" y="295" type="curve" smooth="yes" name="RYXWCOGY"/>
      <point x="172" y="324" name="OZWDNMON"/>
      <point x="198" y="346" name="IWECSVZT"/>
      <point x="243" y="346" type="curve" smooth="yes" name="OGMHJTJB"/>
      <point x="295" y="346" name="LNBGUTJW"/>
      <point x="332" y="319" name="VSMUQFRW"/>
    </contour>
    <contour>
      <point x="367" y="619" type="move" smooth="yes" name="DWDGATGX"/>
      <point x="340" y="627" name="QUGMWTZD"/>
      <point x="314" y="631" name="JQEPBIVA"/>
      <point x="289" y="631" type="curve" smooth="yes" name="ZFOERVCL"/>
      <point x="199" y="631" name="DZYGOVBL"/>
      <point x="138" y="590" name="ZRTNCQFQ"/>
      <point x="138.0" y="530" type="curve" smooth="yes" name="FAONMNLH"/>
      <point x="138" y="408" name="DSYGNOSH"/>
      <point x="398" y="441" name="PICZNSTM"/>
      <point x="398" y="295" type="curve" name="UQAOBDXT"/>
    </contour>
    <contour>
      <point x="398" y="295" type="curve" smooth="yes" name="MZYIXBEU"/>
      <point x="398" y="230" name="YVXNNGPZ"/>
      <point x="336" y="178" name="XRCENYZQ"/>
      <point x="244" y="178" type="curve" smooth="yes" name="NLTFDEKK"/>
      <point x="158" y="178" name="RKEXDFHT"/>
      <point x="106" y="226" name="OBVTPCEV"/>
      <point x="106" y="286" type="curve" smooth="yes" name="VNYPNUKL"/>
      <point x="106" y="350" name="ZOCFNIWP"/>
      <point x="168" y="402" name="TNRYQKDG"/>
      <point x="260" y="402" type="curve" smooth="yes" name="PFMDYZGG"/>
      <point x="346" y="402" name="JOQLOGGB"/>
      <point x="398" y="356" name="WYQSRERL"/>
    </contour>
    <contour>
      <point x="106" y="286" type="move" name="AYINGACV"/>
      <point x="106" y="135" name="NQYFHWFW"/>
      <point x="378" y="162" name="ROFIUFNP"/>
      <point x="378.0" y="48" type="curve" smooth="yes" name="OIDVCMCV"/>
      <point x="378" y="-10" name="VYHEAWOD"/>
      <point x="314" y="-52" name="NZBCAJBH"/>
      <point x="219" y="-52" type="curve" smooth="yes" name="AAEXVWDW"/>
      <point x="191" y="-52" name="ZJSTEFKA"/>
      <point x="160" y="-47" name="ULKLPBBN"/>
      <point x="129" y="-38" type="curve" smooth="yes" name="WLNXLFMQ"/>
    </contour>
    <contour>
      <point x="429.0" y="670.0" type="move" name="XYGWLLJZ"/>
      <point x="367.0" y="619.0" type="line" name="KMXAMPOA"/>
      <point x="429.0" y="522.0" type="line" name="NRFSNWVX"/>
    </contour>
    <contour>
      <point x="67.0" y="-89.0" type="move" name="SFQYRYIF"/>
      <point x="129.0" y="-38.0" type="line" name="CJMHXZGC"/>
      <point x="67.0" y="60.0" type="line" name="NKUKGJGC"/>
    </contour>
    <contour>
      <point x="106" y="286" type="move" name="ROXOWHIL"/>
      <point x="106" y="158" name="NFXQCIWS"/>
      <point x="321.0" y="139.0" name="RALWDUYB"/>
      <point x="385" y="174" type="curve" name="WIYTHOGE"/>
    </contour>
    <contour>
      <point x="398.0" y="295.0" type="move" name="PLFOUIAB"/>
      <point x="398.0" y="422" name="DFMUNOPB"/>
      <point x="172.0" y="440.0" name="ILYBOXFS"/>
      <point x="118.0" y="405.0" type="curve" name="CPZNMFWO"/>
    </contour>
  </outline>
</glyph>
<glyph name="copyright" format="2">
  <advance width="812"/>
  <unicode hex="00A9"/>
  <outline>
    <contour>
      <point x="406.0" y="85.0" type="curve" smooth="yes" name="VNVMBCHT"/>
      <point x="553.2686567164179" y="85.0" name="RIXPCSYZ"/>
      <point x="659.0" y="193.0" name="BWNOLDMN"/>
      <point x="659.0" y="340.0" type="curve" smooth="yes" name="CSLPUKXD"/>
      <point x="659.0" y="487.0" name="TJSQPIZZ"/>
      <point x="553.2686567164179" y="595.0" name="HMVFALNK"/>
      <point x="406.0" y="595.0" type="curve" smooth="yes" name="LTKOQFHL"/>
      <point x="258.7313432835821" y="595.0" name="SKUTOICK"/>
      <point x="153.0" y="487.0" name="HQXHPZSV"/>
      <point x="153.0" y="340.0" type="curve" smooth="yes" name="EDIDDLEA"/>
      <point x="153.0" y="193.0" name="ZBKOZRNM"/>
      <point x="258.7313432835821" y="85.0" name="GNIEHSIW"/>
    </contour>
    <contour>
      <point x="520.0" y="180" type="line" name="JHNWVCAW"/>
      <point x="494" y="169" name="XHXBVNEA"/>
      <point x="462" y="163" name="WCLGAEDW"/>
      <point x="429" y="163.0" type="curve" smooth="yes" name="SRXLXPPY"/>
      <point x="328" y="163.0" name="TEPLHRDC"/>
      <point x="250.0" y="234" name="WRMWHRQL"/>
      <point x="250.0" y="339" type="curve" smooth="yes" name="QKHNHJWN"/>
      <point x="250.0" y="444" name="GONIEORA"/>
      <point x="328" y="517.0" name="ZIBTVZGI"/>
      <point x="429" y="517.0" type="curve" smooth="yes" name="ZDHLRPBC"/>
      <point x="462" y="517" name="ZKTHSDPG"/>
      <point x="494" y="511" name="DNRKKAKH"/>
      <point x="520.0" y="500" type="curve" name="FHHEMZMD"/>
      <point x="520.0" y="396" type="line" name="ZJLJOORP"/>
      <point x="499" y="411" name="EWPVYGEM"/>
      <point x="469" y="426.0" name="YZVHXGIZ"/>
      <point x="439.0" y="426.0" type="curve" smooth="yes" name="ICRRDWQZ"/>
      <point x="391" y="426.0" name="SNMCWVUP"/>
      <point x="358" y="395" name="DOLPJGIM"/>
      <point x="358.0" y="340" type="curve" smooth="yes" name="GIOPKOVU"/>
      <point x="358" y="285" name="PHPTOIJE"/>
      <point x="392" y="255.0" name="LMFBCMZX"/>
      <point x="440" y="255.0" type="curve" smooth="yes" name="JKFKXIZK"/>
      <point x="469" y="255.0" name="OXLHHPSQ"/>
      <point x="498" y="268" name="WFVKFZFA"/>
      <point x="520.0" y="285" type="curve" name="NXHFYBJD"/>
    </contour>
    <contour>
      <point x="406.0" y="-15.0" type="curve" smooth="yes" name="OMCNRTUI"/>
      <point x="198.0" y="-15" name="HSBZQKRK"/>
      <point x="48.0" y="135" name="OWXHUZVU"/>
      <point x="48" y="340" type="curve" smooth="yes" name="KTOPDRAV"/>
      <point x="48.0" y="545" name="CNKGVSPN"/>
      <point x="198" y="695.0" name="WAPVHAAL"/>
      <point x="406" y="695" type="curve" smooth="yes" name="XWQDYDPK"/>
      <point x="614.0" y="695.0" name="AQMKOIRJ"/>
      <point x="764.0" y="545.0" name="XXNXDOKR"/>
      <point x="764.0" y="340.0" type="curve" smooth="yes" name="KASPGAPQ"/>
      <point x="764.0" y="135.0" name="LHTAPLYO"/>
      <point x="614.0" y="-15.0" name="SEAEHABG"/>
    </contour>
    <contour>
      <point x="468" y="212" type="move" smooth="yes" name="IWAIZXFK"/>
      <point x="377" y="195" name="QHRMHVQC"/>
      <point x="304.0" y="247" name="UHFSNJJG"/>
      <point x="304" y="340" type="curve" smooth="yes" name="NABESBAB"/>
      <point x="304" y="433" name="XXFRXCHK"/>
      <point x="382" y="488" name="TFLTFWWO"/>
      <point x="468" y="468" type="curve" name="VSXDUIVF"/>
    </contour>
    <contour>
      <point x="406" y="35" type="curve" smooth="yes" name="KTHBOFUU"/>
      <point x="584" y="35" name="NWPRWYNH"/>
      <point x="712" y="164" name="FGGMBFQQ"/>
      <point x="712" y="340" type="curve" smooth="yes" name="YKVAOXVF"/>
      <point x="712" y="516" name="BAWJDKQQ"/>
      <point x="584" y="645" name="ZCHITEMF"/>
      <point x="406" y="645" type="curve" smooth="yes" name="MJZTEGVD"/>
      <point x="228" y="645" name="GXPWCOCO"/>
      <point x="100" y="516" name="IDCHVQAV"/>
      <point x="100" y="340" type="curve" smooth="yes" name="YZHAKJUT"/>
      <point x="100" y="164" name="TTPMWZGL"/>
      <point x="228" y="35" name="BGNCQKKH"/>
    </contour>
    <contour>
      <point x="520.0" y="500.0" type="move" name="ZULDVEQS"/>
      <point x="468.0" y="468.0" type="line" name="JMKROTCC"/>
      <point x="520.0" y="396.0" type="line" name="XIDPBYSX"/>
    </contour>
    <contour>
      <point x="520.0" y="285.0" type="move" name="HPWCQDQM"/>
      <point x="468.0" y="212.0" type="line" name="HPFMOIEH"/>
      <point x="520.0" y="180.0" type="line" name="KGUOKEGW"/>
    </contour>
  </outline>
</glyph>
<glyph name="guillemetleft" format="2">
  <advance width="752"/>
  <unicode hex="00AB"/>
  <outline>
    <contour>
      <point x="255.0" y="303.0" type="curve"/>
      <point x="305" y="376"/>
      <point x="354" y="469"/>
      <point x="392" y="580" type="curve"/>
      <point x="275" y="466"/>
      <point x="153" y="383"/>
      <point x="5" y="303" type="curve"/>
      <point x="153.0" y="223.0"/>
      <point x="275.0" y="140.0"/>
      <point x="392.0" y="26.0" type="curve"/>
      <point x="354.0" y="137.0"/>
      <point x="305.0" y="230.0"/>
    </contour>
    <contour>
      <point x="575.0" y="303.0" type="curve"/>
      <point x="625" y="376"/>
      <point x="674" y="469"/>
      <point x="712" y="580" type="curve"/>
      <point x="595" y="466"/>
      <point x="473" y="383"/>
      <point x="325" y="303" type="curve"/>
      <point x="473.0" y="223.0"/>
      <point x="595.0" y="140.0"/>
      <point x="712.0" y="26.0" type="curve"/>
      <point x="674.0" y="137.0"/>
      <point x="625.0" y="230.0"/>
    </contour>
  </outline>
</glyph>
<glyph name="logicalnot" format="2">
  <advance width="490"/>
  <unicode hex="00AC"/>
  <outline>
    <contour>
      <point x="450.0" y="174.0" type="line"/>
      <point x="450.0" y="446.0" type="line"/>
      <point x="321.0" y="446.0" type="line"/>
      <point x="321.0" y="174.0" type="line"/>
    </contour>
    <contour>
      <point x="40.0" y="319.0" type="line"/>
      <point x="450.0" y="319.0" type="line"/>
      <point x="450.0" y="446.0" type="line"/>
      <point x="40.0" y="446.0" type="line"/>
    </contour>
  </outline>
</glyph>
<glyph name="registered" format="2">
  <advance width="614"/>
  <unicode hex="00AE"/>
  <outline>
    <contour>
      <point x="307" y="186" type="curve" smooth="yes" name="YILKMRCX"/>
      <point x="456" y="186" name="QSGNGFOV"/>
      <point x="564" y="294" name="VISPSYLD"/>
      <point x="564" y="443" type="curve" smooth="yes" name="PJZJYLHG"/>
      <point x="564" y="592" name="DIHNGDGQ"/>
      <point x="456" y="700" name="QMNSQJTY"/>
      <point x="307" y="700" type="curve" smooth="yes" name="NVPDNCZB"/>
      <point x="158" y="700" name="WILKCZGU"/>
      <point x="50" y="592" name="HRCSOKUU"/>
      <point x="50" y="443" type="curve" smooth="yes" name="PPSTLJRJ"/>
      <point x="50" y="294" name="SNSHLCYY"/>
      <point x="158" y="186" name="AHQDSJVN"/>
    </contour>
    <contour>
      <point x="190" y="313" type="curve" name="GSYTTEFY"/>
      <point x="287" y="313" type="line" name="WGUXNHPL"/>
      <point x="281" y="326" name="BEALBLDY"/>
      <point x="277" y="343" name="QFFFFHAS"/>
      <point x="276" y="401" type="curve" name="VLNYJPOT"/>
      <point x="313" y="401" type="line" name="AUJJSZNR"/>
      <point x="349" y="345" name="OOSXDZMT"/>
      <point x="353" y="326" name="FOLAIAOF"/>
      <point x="354" y="313" type="curve" name="UWYBPZNW"/>
      <point x="463" y="313" type="line" name="WEBWKRWT"/>
      <point x="446" y="328" name="PCGZNSIV"/>
      <point x="419" y="356" name="BXJAXEAM"/>
      <point x="380" y="418" type="curve" name="NHGCHMCW"/>
      <point x="405" y="435" name="ZWTDXDFK"/>
      <point x="420" y="462" name="FJXEUXJU"/>
      <point x="420" y="495" type="curve" smooth="yes" name="UOGOFZTT"/>
      <point x="420" y="552" name="XLAEUPCW"/>
      <point x="378" y="589" name="PSSIXWZN"/>
      <point x="311" y="589" type="curve" smooth="yes" name="XGMXZTIJ"/>
      <point x="190" y="589" type="line" name="UMBSJVCL"/>
      <point x="198" y="574" name="TCMELYNR"/>
      <point x="202" y="552" name="KHCSBMDY"/>
      <point x="202" y="453" type="curve" smooth="yes" name="YYBLJQRY"/>
      <point x="202" y="352" name="EVWEJWAN"/>
      <point x="198" y="329" name="CEICKPGW"/>
    </contour>
    <contour>
      <point x="303" y="527" type="line" smooth="yes" name="WGEUKYQB"/>
      <point x="329" y="527" name="WNNHAAOX"/>
      <point x="344" y="514" name="HHFJCQVI"/>
      <point x="344" y="494" type="curve" smooth="yes" name="KZUHKWEB"/>
      <point x="344" y="473" name="MJCDMTRE"/>
      <point x="329" y="461" name="IJEYNYJI"/>
      <point x="307" y="461" type="curve" smooth="yes" name="HOEWXPXB"/>
      <point x="276" y="461" type="line" name="LPTQRQJT"/>
      <point x="276" y="485" name="OELQHBLD"/>
      <point x="276" y="509" name="KFNVRENU"/>
      <point x="277" y="527" type="curve" name="MIPFTCGS"/>
    </contour>
    <contour>
      <point x="239.0" y="355.0" type="move" name="ADAYMUCK"/>
      <point x="239.0" y="558.0" type="line" name="VQBWEGIT"/>
      <point x="307" y="558" type="line" smooth="yes" name="BNYIZYHA"/>
      <point x="354" y="558" name="RTJLDJEN"/>
      <point x="382" y="533" name="FEGNGUBY"/>
      <point x="382" y="494" type="curve" smooth="yes" name="LZBVDZGG"/>
      <point x="382" y="456" name="NTLPQSRT"/>
      <point x="354" y="431" name="HKNNXEQX"/>
      <point x="312" y="431" type="curve" smooth="yes" name="KCBIZWPX"/>
      <point x="239.0" y="431.0" type="line" name="TIEBDKAE"/>
    </contour>
    <contour>
      <point x="331" y="433" type="move" name="MEISDTZU"/>
      <point x="381" y="355" type="line" name="WHBHKJZN"/>
    </contour>
    <contour>
      <point x="287.0" y="313.0" type="move" name="KOJIMKWT"/>
      <point x="239.0" y="355.0" type="line" name="JVOHTAMY"/>
      <point x="190" y="313" type="line" name="RYQUQNTU"/>
    </contour>
    <contour>
      <point x="463.0" y="313.0" type="move" name="FVKEQWFC"/>
      <point x="381.0" y="355.0" type="line" name="YYVLVRXQ"/>
      <point x="354.0" y="313.0" type="line" name="HINVZEIF"/>
    </contour>
    <contour>
      <point x="276" y="461" type="move" name="AKLNOJPJ"/>
      <point x="239.0" y="431.0" type="line" name="NVKGGERG"/>
      <point x="276.0" y="401.0" type="line" name="XROWJQUK"/>
    </contour>
    <contour>
      <point x="313.0" y="401.0" type="move" name="QCHDLCZC"/>
      <point x="331.0" y="433.0" type="line" name="NQXSDAID"/>
      <point x="380.0" y="418.0" type="line" name="XHYJHUWG"/>
    </contour>
    <contour>
      <point x="190.0" y="589.0" type="move" name="FIFRNYND"/>
      <point x="239.0" y="558.0" type="line" name="PHIOXHUR"/>
      <point x="277.0" y="527.0" type="line" name="FVXFHINW"/>
    </contour>
  </outline>
</glyph>
<glyph name="degree" format="2">
  <advance width="532"/>
  <unicode hex="00B0"/>
  <outline>
    <contour>
      <point x="265" y="361" type="curve" smooth="yes" name="KDBOWFMU"/>
      <point x="324.5922330097087" y="361.0" name="HFLRQOMB"/>
      <point x="364.0" y="404.0" name="VWRDCEVS"/>
      <point x="364" y="471" type="curve" smooth="yes" name="VTBNBNRL"/>
      <point x="364.0" y="538.0" name="ZRDTMEQG"/>
      <point x="324.5922330097087" y="581.0" name="TESOBZEF"/>
      <point x="265" y="581" type="curve" smooth="yes" name="ZECUIMHZ"/>
      <point x="205.65454545454546" y="581.0" name="UOGOUEDU"/>
      <point x="169.0" y="538.0" name="FWHIVKHC"/>
      <point x="169" y="471" type="curve" smooth="yes" name="MBHYJCAU"/>
      <point x="169.0" y="404.0" name="EUIZSMXJ"/>
      <point x="205.48000000000002" y="361.0" name="OQKTFGGQ"/>
    </contour>
    <contour>
      <point x="265" y="246" type="curve" smooth="yes" name="CVWOEIID"/>
      <point x="139.3272727272727" y="246.0" name="HXNBBUKW"/>
      <point x="49.0" y="340.0" name="FTBIRGHP"/>
      <point x="49" y="471" type="curve" smooth="yes" name="ZYSEVTGS"/>
      <point x="49.0" y="601.0" name="ZCEHDMZH"/>
      <point x="139.15652173913043" y="694.0" name="BHYNOOCD"/>
      <point x="265" y="694" type="curve" smooth="yes" name="ABMQBSCP"/>
      <point x="391.6756756756757" y="694.0" name="ROSVIYVS"/>
      <point x="483.0" y="601.0" name="FMGFGBDU"/>
      <point x="483" y="471" type="curve" smooth="yes" name="YTWKXBMQ"/>
      <point x="483.0" y="340.0" name="PTPTZJQX"/>
      <point x="391.6756756756757" y="246.0" name="GLAKLCNV"/>
    </contour>
    <contour>
      <point x="265" y="304" type="curve" smooth="yes" name="GIZNRRFD"/>
      <point x="172" y="304" name="NEWYMGXI"/>
      <point x="109" y="372" name="URPHJNPW"/>
      <point x="109" y="471" type="curve" smooth="yes" name="KBKQDJMK"/>
      <point x="109" y="570" name="ODRGVBIZ"/>
      <point x="172" y="638" name="RXBDHVJK"/>
      <point x="265" y="638" type="curve" smooth="yes" name="FMDCPFWT"/>
      <point x="358" y="638" name="LIZNKMWB"/>
      <point x="424" y="570" name="QRNGOSAS"/>
      <point x="424" y="471" type="curve" smooth="yes" name="EEUXVVZE"/>
      <point x="424" y="372" name="DJFXFKWD"/>
      <point x="358" y="304" name="UOYWXUED"/>
    </contour>
  </outline>
</glyph>
<glyph name="plusminus" format="2">
  <advance width="540"/>
  <unicode hex="00B1"/>
  <outline>
    <contour>
      <point x="40" y="316" type="line"/>
      <point x="500" y="316" type="line"/>
      <point x="500" y="443" type="line"/>
      <point x="40" y="443" type="line"/>
    </contour>
    <contour>
      <point x="334.0" y="173.0" type="line"/>
      <point x="334.0" y="583.0" type="line"/>
      <point x="203.0" y="583.0" type="line"/>
      <point x="203.0" y="173.0" type="line"/>
    </contour>
    <contour>
      <point x="40.0" y="0.0" type="line"/>
      <point x="500.0" y="0.0" type="line"/>
      <point x="500.0" y="127.0" type="line"/>
      <point x="40.0" y="127.0" type="line"/>
    </contour>
  </outline>
</glyph>
<glyph name="threesuperior" format="2">
  <advance width="420"/>
  <unicode hex="00B3"/>
  <outline>
    <contour>
      <point x="217" y="472" type="line"/>
      <point x="373" y="680" type="line"/>
      <point x="265" y="680" type="line"/>
      <point x="95" y="446" type="line"/>
    </contour>
    <contour>
      <point x="252" y="578" type="curve" smooth="yes"/>
      <point x="288" y="578" type="line"/>
      <point x="319" y="680" type="line"/>
      <point x="76" y="680" type="line"/>
      <point x="76" y="560" type="line"/>
      <point x="100" y="571"/>
      <point x="137" y="578"/>
    </contour>
    <contour>
      <point x="189" y="355" type="curve" smooth="yes"/>
      <point x="147" y="355"/>
      <point x="109" y="370"/>
      <point x="70" y="395" type="curve"/>
      <point x="70" y="276" type="line"/>
      <point x="222" y="229"/>
      <point x="375" y="283"/>
      <point x="375" y="404" type="curve" smooth="yes"/>
      <point x="375" y="475"/>
      <point x="306" y="525"/>
      <point x="201" y="525" type="curve"/>
      <point x="95" y="446" type="line"/>
      <point x="210" y="447"/>
      <point x="248" y="429"/>
      <point x="248" y="395" type="curve" smooth="yes"/>
      <point x="248" y="370"/>
      <point x="227" y="355"/>
    </contour>
  </outline>
</glyph>
<glyph name="paragraph" format="2">
  <advance width="768"/>
  <unicode hex="00B6"/>
  <outline>
    <contour>
      <point x="488" y="0" type="line" name="NEDHOFXE"/>
      <point x="468" y="40" name="DNJFEZMZ"/>
      <point x="461" y="95" name="EZFAFBYA"/>
      <point x="461" y="349" type="curve" smooth="yes" name="VBDGIBOD"/>
      <point x="461" y="555" type="line" name="NOOARAQD"/>
      <point x="548" y="555" type="line" name="MTQGYUZB"/>
      <point x="548" y="349" type="line" name="DMJMLTFK"/>
      <point x="548" y="95" name="QYKPOTLE"/>
      <point x="541" y="40" name="IKFNWEQE"/>
      <point x="521" y="0" type="curve" name="JFVFHHVZ"/>
      <point x="708" y="0" type="line" name="KXUHEQGB"/>
      <point x="688" y="40" name="IXEDUCUL"/>
      <point x="681" y="95" name="MDUATCSM"/>
      <point x="681" y="349" type="curve" smooth="yes" name="KIBHJCVV"/>
      <point x="681" y="589" name="MYOILWYP"/>
      <point x="688" y="641" name="QSPRXXAW"/>
      <point x="708" y="680" type="curve" name="ULKKXHPR"/>
      <point x="289" y="680" type="line" smooth="yes" name="UQGHFBCV"/>
      <point x="139" y="680" name="AIVUIUQC"/>
      <point x="47" y="595" name="RDFJEMEN"/>
      <point x="47" y="469" type="curve" smooth="yes" name="SMWWZBJU"/>
      <point x="47" y="343" name="CKZYXCBJ"/>
      <point x="140" y="257" name="YAFDZDOT"/>
      <point x="275" y="257" type="curve" smooth="yes" name="JPNIJEBO"/>
      <point x="328" y="257" type="line" name="QVESYXTD"/>
      <point x="326" y="80" name="VNXFBVCN"/>
      <point x="318" y="35" name="JVVOMZFC"/>
      <point x="301" y="0" type="curve" name="NEXNOMFT"/>
    </contour>
    <contour>
      <point x="277" y="377" type="line" smooth="yes" name="OLRWEBEI"/>
      <point x="229" y="377" name="XYAZUSRM"/>
      <point x="194" y="412" name="XJPLBLHM"/>
      <point x="194" y="466" type="curve" smooth="yes" name="JTUVUGPW"/>
      <point x="194" y="520" name="AWYIPFOH"/>
      <point x="228" y="555" name="IQUBSIPD"/>
      <point x="287" y="555" type="curve" smooth="yes" name="HPGTHWJF"/>
      <point x="324" y="555" type="line" name="UOFJIWSP"/>
      <point x="327" y="513" name="PUUENTSR"/>
      <point x="328" y="456" name="YUYRZJOT"/>
      <point x="328" y="377" type="curve" name="ZUTEWNCK"/>
    </contour>
    <contour>
      <point x="614.0" y="62.0" type="move" name="WOHXIEPP"/>
      <point x="614" y="349" type="line" name="HKMHMJEG"/>
      <point x="614" y="468" name="XEHFAIIO"/>
      <point x="616" y="547" name="IKPMGUOW"/>
      <point x="620" y="618" type="curve" name="RIIVTYTF"/>
      <point x="288" y="618" type="line" name="RGILYDEK"/>
      <point x="184" y="618" name="ZXTCBELZ"/>
      <point x="120" y="558" name="GNYEHJVK"/>
      <point x="120" y="468" type="curve" smooth="yes" name="GNMGBQVB"/>
      <point x="120" y="378" name="BPBRZTII"/>
      <point x="184" y="317" name="LHGAEHVT"/>
      <point x="276" y="317" type="curve" smooth="yes" name="LUPHGQCF"/>
      <point x="394.0" y="317.0" type="line" name="DSCZHVVO"/>
    </contour>
    <contour>
      <point x="388" y="618" type="move" name="IQWJGPUJ"/>
      <point x="393" y="547" name="SRCLPQVZ"/>
      <point x="394.0" y="447" name="KHSKHVHR"/>
      <point x="394" y="349" type="curve" smooth="yes" name="DSMJJCPV"/>
      <point x="394.0" y="62.0" type="line" name="PDFJLSEO"/>
    </contour>
    <contour>
      <point x="708.0" y="0.0" type="move" name="LBSUKNCH"/>
      <point x="614.0" y="62.0" type="line" name="NPPPWUMM"/>
      <point x="521.0" y="0.0" type="line" name="LAEUUKWR"/>
    </contour>
    <contour>
      <point x="488.0" y="0.0" type="move" name="YEBUXAXM"/>
      <point x="394.0" y="62.0" type="line" name="OVBUQIDV"/>
      <point x="301.0" y="0.0" type="line" name="SXENYZXW"/>
    </contour>
    <contour>
      <point x="548.0" y="555.0" type="move" name="AKDZFDJF"/>
      <point x="620.0" y="618.0" type="line" name="GSHRJIGM"/>
      <point x="708.0" y="680.0" type="line" name="BVHCDVWV"/>
    </contour>
    <contour>
      <point x="324.0" y="555.0" type="move" name="BSIEZCMB"/>
      <point x="388.0" y="618.0" type="line" name="CPAAMRDE"/>
      <point x="461.0" y="555.0" type="line" name="ITTYFALT"/>
    </contour>
    <contour>
      <point x="328.0" y="257.0" type="move" name="PSWXMVHJ"/>
      <point x="394.0" y="317.0" type="line" name="IAXVYSDJ"/>
      <point x="328.0" y="377.0" type="line" name="FRRLEQSB"/>
    </contour>
  </outline>
</glyph>
<glyph name="periodcentered" format="2">
  <advance width="291"/>
  <unicode hex="00B7"/>
  <outline>
    <contour>
      <point x="65" y="249" type="line"/>
      <point x="226" y="249" type="line"/>
      <point x="226" y="410" type="line"/>
      <point x="65" y="410" type="line"/>
    </contour>
  </outline>
</glyph>
<glyph name="cedilla" format="2">
  <advance width="416"/>
  <unicode hex="00B8"/>
  <anchor x="0" y="0" name="bottom"/>
  <anchor x="208" y="0" name="center"/>
  <outline>
    <contour>
      <point x="238" y="45" type="curve" name="ZHUTZGMT"/>
      <point x="122" y="36" type="line" name="DKOKFVVI"/>
      <point x="122" y="-115" name="GPNHANIF"/>
      <point x="220" y="-80" name="RRUGPFXW"/>
      <point x="220.0" y="-137" type="curve" smooth="yes" name="PFFSGILJ"/>
      <point x="220" y="-182" name="LZMOVIVN"/>
      <point x="149" y="-183" name="MZQUQBGZ"/>
      <point x="60" y="-119" type="curve" name="XXKZCYMM"/>
      <point x="60" y="-245" type="line" name="XSATCYWE"/>
      <point x="235" y="-296" name="LNWDKNFV"/>
      <point x="356" y="-248" name="IAWSXHWH"/>
      <point x="356" y="-134" type="curve" smooth="yes" name="IKAKEGEY"/>
      <point x="356" y="-18" name="GYENAICE"/>
      <point x="228" y="-50" name="JZUAYTPP"/>
    </contour>
    <contour>
      <point x="180" y="40" type="move" name="KUAJFBNR"/>
      <point x="175" y="-82" name="LHNMOKXI"/>
      <point x="288" y="-49" name="RDITOQIT"/>
      <point x="288" y="-136" type="curve" smooth="yes" name="NYXGSXJE"/>
      <point x="288" y="-202" name="BTZWJVHD"/>
      <point x="221" y="-230" name="TMPTKFWG"/>
      <point x="122" y="-204" type="curve" smooth="yes" name="KTXVQYFV"/>
    </contour>
    <contour>
      <point x="60.0" y="-245.0" type="move" name="YKSBPDZL"/>
      <point x="122.0" y="-204.0" type="line" name="SJSBMLGJ"/>
      <point x="60.0" y="-119.0" type="line" name="EVCDMOCG"/>
    </contour>
  </outline>
</glyph>
<glyph name="ordmasculine" format="2">
  <advance width="492"/>
  <unicode hex="00BA"/>
  <outline>
    <contour>
      <point x="246" y="381" type="curve" smooth="yes" name="OBXJBVPW"/>
      <point x="295.0" y="381.0" name="SEAHLDOV"/>
      <point x="327.0" y="425" name="XWICHUDC"/>
      <point x="327" y="488" type="curve" smooth="yes" name="YGTTLSGW"/>
      <point x="327.0" y="552" name="TYYMYAZK"/>
      <point x="295.0" y="595.0" name="EYFFQSEJ"/>
      <point x="246" y="595" type="curve" smooth="yes" name="CASDQJGP"/>
      <point x="197.0" y="595.0" name="YRPPVZSY"/>
      <point x="165.0" y="552" name="QKQOHBTN"/>
      <point x="165" y="488" type="curve" smooth="yes" name="XDRJPSBD"/>
      <point x="165.0" y="425" name="YNQVTUJI"/>
      <point x="197.0" y="381.0" name="FDGGYRZH"/>
    </contour>
    <contour>
      <point x="246" y="282" type="curve" smooth="yes" name="EKVDARGE"/>
      <point x="131.0" y="282.0" name="UHOCGWHG"/>
      <point x="46.0" y="370" name="FIGTWIYH"/>
      <point x="46" y="488" type="curve" smooth="yes" name="NMAJQRSD"/>
      <point x="46.0" y="606" name="HAWKJXIO"/>
      <point x="131" y="694.0" name="CEUMMPMX"/>
      <point x="246" y="694.0" type="curve" smooth="yes" name="QBMWTOJW"/>
      <point x="360" y="694.0" name="AJHFVMUD"/>
      <point x="446.0" y="606" name="OHEOUFNB"/>
      <point x="446" y="488" type="curve" smooth="yes" name="EEJGSVBM"/>
      <point x="446.0" y="370" name="XNXFQWEU"/>
      <point x="360.0" y="282.0" name="SCUNQSLI"/>
    </contour>
    <contour>
      <point x="66.0" y="113.0" type="line" name="EMZHMTKT"/>
      <point x="426.0" y="113.0" type="line" name="DDNPUNAC"/>
      <point x="426.0" y="222.0" type="line" name="ACXYMYQU"/>
      <point x="66.0" y="222.0" type="line" name="ZGRUOLMJ"/>
    </contour>
    <contour>
      <point x="246" y="332" type="curve" smooth="yes" name="LEFIRBRP"/>
      <point x="164" y="332" name="TYIYTREH"/>
      <point x="106" y="398" name="IGYOUACN"/>
      <point x="106" y="488" type="curve" smooth="yes" name="CSHHJBXN"/>
      <point x="106" y="579" name="JSPJHATX"/>
      <point x="164" y="644" name="HTLPNASZ"/>
      <point x="246" y="644" type="curve" smooth="yes" name="AOHJZJJB"/>
      <point x="328" y="644" name="MYGAXYUW"/>
      <point x="386" y="579" name="HCAGVFGB"/>
      <point x="386" y="488" type="curve" smooth="yes" name="CTQNKMKG"/>
      <point x="386" y="398" name="XRDQSCDY"/>
      <point x="328" y="332" name="WNKXIRHY"/>
    </contour>
    <contour>
      <point x="374.0" y="168.0" type="move" name="AHBASXNG"/>
      <point x="118.0" y="168.0" type="line" name="FWGGRKND"/>
    </contour>
    <contour>
      <point x="66.0" y="113.0" type="move" name="SIAMBFMI"/>
      <point x="118.0" y="168.0" type="line" name="AWJEQRGB"/>
      <point x="66.0" y="222.0" type="line" name="OIRWJVVO"/>
    </contour>
    <contour>
      <point x="426.0" y="222.0" type="move" name="EODMASAK"/>
      <point x="374.0" y="168.0" type="line" name="JABROEUQ"/>
      <point x="426.0" y="113.0" type="line" name="XPRWKGXC"/>
    </contour>
  </outline>
</glyph>
<glyph name="onehalf" format="2">
  <advance width="940"/>
  <unicode hex="00BD"/>
  <outline>
    <contour>
      <point x="254" y="484" type="curve" smooth="yes" name="FKAFOLVP"/>
      <point x="254" y="629" name="NSSIJYWL"/>
      <point x="257" y="659" name="SHSZPXKQ"/>
      <point x="265" y="694" type="curve" name="EYRTSBFS"/>
      <point x="40" y="653" type="line" name="RBLATXZN"/>
      <point x="40" y="529" type="line" name="TPJXRXON"/>
      <point x="62" y="544" name="SJVLSSPI"/>
      <point x="92" y="557" name="XBVYSNVQ"/>
      <point x="132" y="567" type="curve" name="NJFEQRXK"/>
      <point x="133" y="546" name="AJXKPJNG"/>
      <point x="133" y="526" name="CINXUBTQ"/>
      <point x="133" y="484" type="curve" smooth="yes" name="AJTIUQIS"/>
      <point x="133" y="329" name="XGHHKQQS"/>
      <point x="128" y="298" name="RNIWAJYS"/>
      <point x="108" y="271" type="curve" name="ARZLISJL"/>
      <point x="272" y="271" type="line" name="QXANKEHL"/>
      <point x="258" y="296" name="GWWAUHRJ"/>
      <point x="254" y="329" name="KIDUITSM"/>
    </contour>
    <contour>
      <point x="90" y="608" type="move" smooth="yes" name="LGAWLIOF"/>
      <point x="120" y="616" name="FPELBJBQ"/>
      <point x="156" y="624" name="RTEOSXII"/>
      <point x="197" y="631" type="curve" name="KSZPWNFU"/>
      <point x="195" y="603" name="MVMHRIMX"/>
      <point x="194" y="575" name="WZORDRQK"/>
      <point x="194" y="484" type="curve" smooth="yes" name="ZVAXMOYV"/>
      <point x="194" y="323" type="line" name="ECEMLJVK"/>
    </contour>
    <contour>
      <point x="272" y="271" type="move" name="HMCBDXWQ"/>
      <point x="194" y="323" type="line" name="NKQGKGLT"/>
      <point x="108" y="271" type="line" name="AHVUZJUJ"/>
    </contour>
    <contour>
      <point x="40" y="529" type="move" name="YKSBPDZL"/>
      <point x="90" y="608" type="line" name="SJSBMLGJ"/>
      <point x="40" y="653" type="line" name="EVCDMOCG"/>
    </contour>
    <contour>
      <point x="132" y="567" type="move" name="FBAXOHBA"/>
      <point x="197" y="631" type="line" name="PARNAAAU"/>
      <point x="265" y="694" type="line" name="LGHUHPJI"/>
    </contour>
    <contour>
      <point x="155" y="0" type="line" name="CPMECJON"/>
      <point x="281" y="0" type="line" name="PEPYQPOY"/>
      <point x="693" y="680" type="line" name="ZQFKFAXG"/>
      <point x="567" y="680" type="line" name="OPUSLGDN"/>
    </contour>
    <contour>
      <point x="599" y="628" type="move" name="CVGMOIPZ"/>
      <point x="249" y="52" type="line" name="HAMZUUTH"/>
    </contour>
    <contour>
      <point x="281" y="0" type="move" name="JRLMZRMB"/>
      <point x="249" y="52" type="line" name="VWUMAPUP"/>
      <point x="155" y="0" type="line" name="XJBUXPFQ"/>
    </contour>
    <contour>
      <point x="567" y="680" type="move" name="ECUUNSVW"/>
      <point x="599" y="628" type="line" name="WZGBHWZC"/>
      <point x="693" y="680" type="line" name="SFLOLYUF"/>
    </contour>
    <contour>
      <point x="863" y="300" type="curve" smooth="yes" name="DRSGDJZO"/>
      <point x="863" y="383" name="FAYNJEZE"/>
      <point x="794" y="421" name="EZABBSVW"/>
      <point x="692" y="421" type="curve" smooth="yes" name="KPWUJZRE"/>
      <point x="651" y="421" name="HMOIBRVT"/>
      <point x="611" y="416" name="HZMUCYCA"/>
      <point x="568" y="405" type="curve" name="AVLAHOBE"/>
      <point x="568" y="285" type="line" name="QEMAIVJN"/>
      <point x="603" y="309" name="FYQLRCAG"/>
      <point x="642" y="322" name="BSSGIAFK"/>
      <point x="678" y="322" type="curve" smooth="yes" name="APDWAEWC"/>
      <point x="718" y="322" name="NSYEXHKC"/>
      <point x="739" y="306" name="EXGJHBKP"/>
      <point x="739" y="281" type="curve" smooth="yes" name="ZHODVPOU"/>
      <point x="739" y="201" name="VTJNEWBE"/>
      <point x="583" y="157" name="ELDNQLCN"/>
      <point x="552" y="0" type="curve" name="PNJENKNQ"/>
      <point x="855" y="0" type="line" name="BXQZPHYX"/>
      <point x="869" y="121" type="line" name="ZEPABTHC"/>
      <point x="846" y="105" name="BOJPPOJN"/>
      <point x="811" y="96" name="NLXTIWAE"/>
      <point x="718" y="96" type="curve" name="XOLFBNSB"/>
      <point x="777" y="166" name="NEBYEADZ"/>
      <point x="863" y="200" name="TBROTRTO"/>
    </contour>
    <contour>
      <point x="805" y="52" type="move" smooth="yes" name="GHASQSRJ"/>
      <point x="765" y="48" name="IUSGEBQW"/>
      <point x="709" y="47" name="QXVKZFDZ"/>
      <point x="626" y="49" type="curve" name="ZQWDJGUT"/>
      <point x="678" y="161" name="YAXGVCBA"/>
      <point x="801" y="196" name="XOFAFDTX"/>
      <point x="801" y="291" type="curve" smooth="yes" name="IJTCSEFS"/>
      <point x="801" y="345" name="SXOELCQO"/>
      <point x="756" y="371" name="GLHWOSNT"/>
      <point x="685" y="371" type="curve" smooth="yes" name="KIVYLECJ"/>
      <point x="663" y="371" name="JCUBUTBD"/>
      <point x="640" y="368" name="XMAUUFKX"/>
      <point x="618" y="363" type="curve" smooth="yes" name="GBUAMFHQ"/>
    </contour>
    <contour>
      <point x="568" y="285" type="move" name="LEGWCFIG"/>
      <point x="618" y="363" type="line" name="NLYQWXVD"/>
      <point x="568" y="405" type="line" name="XXZQGZAX"/>
    </contour>
    <contour>
      <point x="869" y="121" type="move" name="FBVKOYGF"/>
      <point x="805" y="52" type="line" name="MWPUUIWI"/>
      <point x="855" y="0" type="line" name="KLBSXAKD"/>
    </contour>
    <contour>
      <point x="718" y="96" type="move" name="JSECTOTJ"/>
      <point x="626" y="49" type="line" name="KROWKOKR"/>
      <point x="552" y="0" type="line" name="FQMPGUQD"/>
    </contour>
  </outline>
</glyph>
<glyph name="questiondown" format="2">
  <advance width="523"/>
  <unicode hex="00BF"/>
  <outline>
    <contour>
      <point x="35.0" y="170.0" type="curve" smooth="yes" name="GVMNPZFW"/>
      <point x="35" y="51" name="DPQUFMYO"/>
      <point x="135" y="-12" name="MONNJRYI"/>
      <point x="292" y="-12" type="curve" smooth="yes" name="QVUBMHEL"/>
      <point x="349" y="-12" name="CPAQJFXL"/>
      <point x="414" y="-4" name="FWUEVRWI"/>
      <point x="478" y="15" type="curve" name="HNQXYWXY"/>
      <point x="478" y="186" type="line" name="CFXPOPID"/>
      <point x="423" y="144" name="PGKVICVL"/>
      <point x="359" y="116" name="LTRAZTFT"/>
      <point x="294.0" y="116.0" type="curve" smooth="yes" name="WWTFVHVC"/>
      <point x="230" y="116" name="XYHIEGXK"/>
      <point x="188" y="140" name="TTZOKTHK"/>
      <point x="188.0" y="179.0" type="curve" smooth="yes" name="ISHNKXZW"/>
      <point x="188.0" y="261.0" name="HPGDOPYI"/>
      <point x="360.0" y="273.0" name="WLRRNCQR"/>
      <point x="344" y="423" type="curve" name="MVOGZFFD"/>
      <point x="237" y="423" type="line" name="RGCOXSTJ"/>
      <point x="237" y="332" name="BSQRGBBW"/>
      <point x="35" y="332" name="EUXVNIWO"/>
    </contour>
    <contour>
      <point x="371" y="680" type="line" name="APXCUMSR"/>
      <point x="210" y="680" type="line" name="DEJCWETR"/>
      <point x="210" y="519" type="line" name="OOUGIOLE"/>
      <point x="371" y="519" type="line" name="TCUQKZGD"/>
    </contour>
    <contour>
      <point x="371" y="519" type="move" name="KFGIGMOD"/>
      <point x="291" y="599" type="line" name="PHPTNCMS"/>
      <point x="210" y="680" type="line" name="JYLHONKL"/>
    </contour>
    <contour>
      <point x="371" y="680" type="move" name="GMKLNRTI"/>
      <point x="291" y="599" type="line" name="BGIAKFXI"/>
      <point x="210" y="519" type="line" name="DUAAOXAS"/>
    </contour>
    <contour>
      <point x="237.0" y="423.0" type="move" name="JRLMZRMB"/>
      <point x="283.0" y="377.0" type="line" name="VWUMAPUP"/>
      <point x="344.0" y="423.0" type="line" name="XJBUXPFQ"/>
    </contour>
    <contour>
      <point x="416" y="74" type="move" smooth="yes" name="CZGRHAEP"/>
      <point x="375" y="60" name="OWEGBLNJ"/>
      <point x="333" y="52" name="DUKJKRKS"/>
      <point x="293" y="52" type="curve" smooth="yes" name="DBTMXWNH"/>
      <point x="183" y="52" name="MKGMAZJP"/>
      <point x="111" y="96" name="SKGHRGHM"/>
      <point x="111" y="174" type="curve" smooth="yes" name="GIGXNIGK"/>
      <point x="111" y="278" name="XPKIAYVY"/>
      <point x="249" y="298" name="GYNLDTND"/>
      <point x="283" y="377" type="curve" smooth="yes" name="PRYMSVEV"/>
    </contour>
    <contour>
      <point x="478.0" y="186.0" type="move" name="DMOCMXSX"/>
      <point x="416.0" y="74.0" type="line" name="BUWWFJIJ"/>
      <point x="478.0" y="15.0" type="line" name="IIYOJRYX"/>
    </contour>
  </outline>
</glyph>
<glyph name="AE" format="2">
  <advance width="888"/>
  <unicode hex="00C6"/>
  <outline>
    <contour>
      <point x="751" y="69" type="move" smooth="yes" name="WQTISNDK"/>
      <point x="680" y="63" name="HUEQRWOZ"/>
      <point x="566" y="60" name="XASQUJDO"/>
      <point x="495" y="62" type="curve" name="BZBSRBAL"/>
      <point x="495" y="618" type="line" name="DARGRHBN"/>
    </contour>
    <contour>
      <point x="726.0" y="350.0" type="move" name="GRLQYXQK"/>
      <point x="495" y="350" type="line" name="GHHEYZBI"/>
    </contour>
    <contour>
      <point x="570.0" y="125.0" type="move" name="MJVZATKE"/>
      <point x="495.0" y="62.0" type="line" name="ZWRNCKHQ"/>
      <point x="396" y="0" type="line" name="EFSHOVMG"/>
    </contour>
    <contour>
      <point x="815.0" y="680.0" type="move" name="IIYOJRYX"/>
      <point x="753.0" y="611.0" type="line" name="BUWWFJIJ"/>
      <point x="815.0" y="524.0" type="line" name="DMOCMXSX"/>
    </contour>
    <contour>
      <point x="833.0" y="166.0" type="move" name="NFCLXEKZ"/>
      <point x="751.0" y="69.0" type="line" name="DGWJLFZR"/>
      <point x="813.0" y="0.0" type="line" name="RDJQSJBO"/>
    </contour>
    <contour>
      <point x="788.0" y="432.0" type="move" name="UBWSCXEJ"/>
      <point x="726.0" y="350.0" type="line" name="OGPDTMUS"/>
      <point x="788.0" y="269.0" type="line" name="JMWBMAFS"/>
    </contour>
    <contour>
      <point x="566.0" y="410.0" type="move" name="HAWFMGNR"/>
      <point x="495.0" y="350.0" type="line" name="ROFWTZTV"/>
      <point x="566.0" y="290.0" type="line" name="GOKVVXDN"/>
    </contour>
    <contour>
      <point x="495.0" y="202.0" type="move" name="XDNVSZHE"/>
      <point x="184" y="202" type="line" name="JZAWZJHR"/>
    </contour>
    <contour>
      <point x="396" y="0" type="curve" name="PQPSETRJ"/>
      <point x="813" y="0" type="line" name="MNOEFXSV"/>
      <point x="833" y="166" type="line" name="PJQIRWDG"/>
      <point x="797" y="137" name="XHEORQFI"/>
      <point x="748" y="122" name="FYUYAVEQ"/>
      <point x="570" y="125" type="curve" name="DYJTJDFA"/>
      <point x="568" y="165" name="BCKLZOHI"/>
      <point x="567" y="218" name="KGNRSMJZ"/>
      <point x="566" y="290" type="curve" name="IUOXCDAK"/>
      <point x="726" y="289" name="CNAHUEUJ"/>
      <point x="758" y="284" name="OBVYYJID"/>
      <point x="788" y="269" type="curve" name="OVQDCCFR"/>
      <point x="788" y="432" type="line" name="CPORPORC"/>
      <point x="758" y="416" name="NKITVGJH"/>
      <point x="726" y="411" name="AIIEHILG"/>
      <point x="566" y="410" type="curve" name="KWKEJXSA"/>
      <point x="567" y="472" name="AMSCNIRF"/>
      <point x="568" y="519" name="XNAJDZJU"/>
      <point x="570" y="555" type="curve" name="SBMVYBLS"/>
      <point x="742" y="558" name="OOBSMMOC"/>
      <point x="782" y="541" name="VRKLHYTS"/>
      <point x="815" y="524" type="curve" name="GRNGKCAN"/>
      <point x="815" y="680" type="line" name="ZCDNYPIH"/>
      <point x="329" y="680" type="line" name="ZYHYYXJQ"/>
      <point x="323" y="641" name="QKQPJPIW"/>
      <point x="297" y="588" name="SOLRUTFX"/>
      <point x="182" y="349" type="curve" smooth="yes" name="GVGMICGQ"/>
      <point x="59" y="95" name="ATDIQOZS"/>
      <point x="29" y="40" name="VXZMMNIR"/>
      <point x="-5" y="0" type="curve" name="WRQCAJFG"/>
      <point x="210" y="0" type="line" name="BXZUXYVT"/>
      <point x="202" y="30" name="XUZINMLX"/>
      <point x="203" y="60" name="BNRXRRAT"/>
      <point x="234" y="140" type="curve" name="CCJQGUNA"/>
      <point x="420" y="140" type="line" name="UICMBEQX"/>
      <point x="416" y="56" name="AJBDMPLT"/>
      <point x="409" y="25" name="ERISEFGT"/>
    </contour>
    <contour>
      <point x="420" y="549" type="line" name="VRJIVDGZ"/>
      <point x="422.68888888888887" y="487.15555555555557" name="MTIRKELY"/>
      <point x="423.0" y="362.5806451612903" name="CZDJOLQK"/>
      <point x="423" y="265" type="curve" name="SYUQQJKU"/>
      <point x="287" y="265" type="line" name="STQLFPCO"/>
    </contour>
    <contour>
      <point x="124" y="70" type="move" smooth="yes" name="UXPHOCGC"/>
      <point x="136" y="100" name="CRPRVBMS"/>
      <point x="154" y="141" name="DBJCVQVE"/>
      <point x="184" y="202" type="curve" smooth="yes" name="WQJZXJHW"/>
      <point x="233" y="302" name="IYAWJIDS"/>
      <point x="330" y="500" name="JOLEZWUV"/>
      <point x="380" y="618" type="curve" name="EZKPJDVQ"/>
      <point x="495" y="618" type="line" smooth="yes" name="ZBZTEFBK"/>
      <point x="575" y="618" name="ZBUJAOGE"/>
      <point x="685" y="616" name="GQBFPDWB"/>
      <point x="753" y="611" type="curve" smooth="yes" name="PSTPYLRZ"/>
    </contour>
    <contour>
      <point x="210.0" y="0.0" type="move" name="VYPIWFWC"/>
      <point x="124" y="70" type="line" name="HDOGQIGX"/>
      <point x="-5.0" y="0.0" type="line" name="NZGOSKZA"/>
    </contour>
    <contour>
      <point x="329.0" y="680.0" type="move" name="FRQNRQUI"/>
      <point x="380.0" y="618.0" type="line" name="BASSKSOR"/>
      <point x="420.0" y="549.0" type="line" name="FMQQCCRM"/>
      <point x="495.0" y="618.0" type="line" name="BRYINAFI"/>
      <point x="570.0" y="555.0" type="line" name="SGUPTAKX"/>
    </contour>
    <contour>
      <point x="0" y="520" type="move" name="PQFFLUHC"/>
    </contour>
    <contour>
      <point x="287.0" y="265.0" type="move" name="QYFKFJMG"/>
      <point x="184.0" y="202.0" type="line" name="CGKBAATW"/>
      <point x="234.0" y="140.0" type="line" name="SBOVUESM"/>
    </contour>
    <contour>
      <point x="420.0" y="140.0" type="move" name="YMBZTOBS"/>
      <point x="495.0" y="202.0" type="line" name="GYGUFTND"/>
      <point x="423.0" y="265.0" type="line" name="NUDUHIGH"/>
    </contour>
  </outline>
</glyph>
<glyph name="Ccedilla" format="2">
  <advance width="610"/>
  <unicode hex="00C7"/>
  <outline>
    <contour>
      <point x="488" y="607" type="move" smooth="yes" name="DPEXBIPW"/>
      <point x="453" y="620" name="EQSYGSUQ"/>
      <point x="409" y="628" name="UEAMWQAD"/>
      <point x="374" y="628" type="curve" smooth="yes" name="KQUUYGGH"/>
      <point x="215" y="628" name="ZZZCHOTG"/>
      <point x="113" y="512" name="YHMSRLBE"/>
      <point x="113" y="339" type="curve" smooth="yes" name="URTIXGAW"/>
      <point x="113" y="185" name="XFRJNJXJ"/>
      <point x="194" y="78" name="RRBRKBXV"/>
      <point x="324" y="56" type="curve" smooth="yes" name="PCWKLQJX"/>
      <point x="371" y="47" name="TCCYPWOU"/>
      <point x="440" y="53" name="XOXXAJYZ"/>
      <point x="488" y="71" type="curve" smooth="yes" name="ZRADGHXR"/>
    </contour>
    <contour>
      <point x="550" y="658" type="move" name="ZVSPBBMH"/>
      <point x="488" y="607" type="line" name="PJYICBXU"/>
      <point x="550" y="490" type="line" name="JTRIQKLW"/>
    </contour>
    <contour>
      <point x="550" y="190" type="move" name="IQVNJISR"/>
      <point x="488" y="71" type="line" name="MBLKTCQA"/>
      <point x="550" y="22" type="line" name="LMCNVRTT"/>
    </contour>
    <contour>
      <point x="324" y="56" type="move" smooth="yes" name="FUYOWHTT"/>
      <point x="300" y="-99" name="AXUTQSHL"/>
      <point x="429" y="-55" name="VUDPKNZX"/>
      <point x="429" y="-148" type="curve" smooth="yes" name="KJQYQZMW"/>
      <point x="429" y="-214" name="ZAPXATSX"/>
      <point x="362" y="-242" name="PBOSIJKJ"/>
      <point x="263" y="-216" type="curve" name="QOTIUSFZ"/>
    </contour>
    <contour>
      <point x="201" y="-257" type="move" name="YKSBPDZL"/>
      <point x="263" y="-216" type="line" name="SJSBMLGJ"/>
      <point x="201" y="-131" type="line" name="EVCDMOCG"/>
    </contour>
    <contour>
      <point x="189" y="340" type="curve" smooth="yes" name="ZTOMZSHJ"/>
      <point x="189" y="479" name="YLXGMHNL"/>
      <point x="263" y="564" name="LJOYVVEK"/>
      <point x="370" y="564" type="curve" smooth="yes" name="SHPNPZJQ"/>
      <point x="436" y="564" name="ICHGITSW"/>
      <point x="502" y="531" name="PIOFONDU"/>
      <point x="550" y="490" type="curve" name="HPRWELAB"/>
      <point x="550" y="658" type="line" name="IKLOTKUV"/>
      <point x="501" y="680" name="TDWCLQUY"/>
      <point x="439" y="692" name="BFFDIVHZ"/>
      <point x="378" y="692" type="curve" smooth="yes" name="MECSBSXR"/>
      <point x="167" y="692" name="FTZOKMWZ"/>
      <point x="37" y="546" name="TOCPKKOQ"/>
      <point x="37" y="338" type="curve" smooth="yes" name="MXCINSLZ"/>
      <point x="37" y="171" name="QYUHUNZR"/>
      <point x="121" y="46" name="OWLRDJQG"/>
      <point x="264" y="4" type="curve" name="NAGVKDRD"/>
      <point x="272" y="-124" name="OXZAEUHB"/>
      <point x="361" y="-95" name="VEBBXCHC"/>
      <point x="361" y="-149" type="curve" smooth="yes" name="PFFSGILJ"/>
      <point x="361" y="-194" name="LZMOVIVN"/>
      <point x="290" y="-195" name="MZQUQBGZ"/>
      <point x="201" y="-131" type="curve" name="XXKZCYMM"/>
      <point x="201" y="-257" type="line" name="XSATCYWE"/>
      <point x="376" y="-308" name="LNWDKNFV"/>
      <point x="497" y="-260" name="IAWSXHWH"/>
      <point x="497" y="-146" type="curve" smooth="yes" name="IKAKEGEY"/>
      <point x="497" y="-54" name="XHPWMJEX"/>
      <point x="416" y="-55" name="RGZQZHBL"/>
      <point x="388" y="-12" type="curve" name="BXURFAPN"/>
      <point x="446" y="-11" name="ULMANJMD"/>
      <point x="504" y="1" name="ADGUQBTK"/>
      <point x="550" y="22" type="curve" name="TBWVDPPF"/>
      <point x="550" y="190" type="line" name="FCYNOSNY"/>
      <point x="500" y="146" name="EMBXHTCA"/>
      <point x="437" y="117" name="KQQSBZJZ"/>
      <point x="371" y="117" type="curve" smooth="yes" name="MUXQBMUD"/>
      <point x="264" y="117" name="LWMSBIBO"/>
      <point x="189" y="201" name="FEWDNOIV"/>
    </contour>
    <contour>
      <point x="264.0" y="4.0" type="move" name="LYDWDSSQ"/>
      <point x="324.0" y="56.0" type="line" name="XWSBPOTG"/>
      <point x="388.0" y="-12.0" type="line" name="HDSFATQN"/>
    </contour>
  </outline>
</glyph>
<glyph name="Eth" format="2">
  <advance width="701"/>
  <unicode hex="00D0"/>
  <outline>
    <contour>
      <point x="25" y="277" type="line"/>
      <point x="365" y="277" type="line"/>
      <point x="365" y="404" type="line"/>
      <point x="25" y="404" type="line"/>
    </contour>
    <component base="D" xOffset="10"/>
  </outline>
</glyph>
<glyph name="multiply" format="2">
  <advance width="535"/>
  <unicode hex="00D7"/>
  <outline>
    <contour>
      <point x="143" y="88" type="line"/>
      <point x="488" y="433" type="line"/>
      <point x="393" y="528" type="line"/>
      <point x="48" y="183" type="line"/>
    </contour>
    <contour>
      <point x="393" y="88" type="line"/>
      <point x="488" y="183" type="line"/>
      <point x="143" y="528" type="line"/>
      <point x="48" y="433" type="line"/>
    </contour>
  </outline>
</glyph>
<glyph name="Oslash" format="2">
  <advance width="740"/>
  <unicode hex="00D8"/>
  <outline>
    <contour>
      <point x="95" y="-33" type="line"/>
      <point x="533" y="772" type="line"/>
      <point x="641" y="714" type="line"/>
      <point x="203" y="-91" type="line"/>
    </contour>
    <component base="O"/>
  </outline>
</glyph>
<glyph name="Thorn" format="2">
  <advance width="588"/>
  <unicode hex="00DE"/>
  <outline>
    <contour>
      <point x="57" y="0" type="curve" name="HBBLDYSS"/>
      <point x="254" y="0" type="line" name="GMPJWLCD"/>
      <point x="243" y="23" name="ZWUPAVAR"/>
      <point x="236" y="50" name="EOVDNPFB"/>
      <point x="231" y="115" type="curve" name="IARCJMAN"/>
      <point x="316" y="115" type="line" smooth="yes" name="HIJWSVEE"/>
      <point x="472" y="115" name="RCKJXVEF"/>
      <point x="568" y="206" name="OXETRQPG"/>
      <point x="568" y="341" type="curve" smooth="yes" name="KBWVHWVY"/>
      <point x="568" y="476" name="NBKIVZWO"/>
      <point x="472" y="565" name="SOZPLKSL"/>
      <point x="316" y="565" type="curve" smooth="yes" name="XNKWVZCM"/>
      <point x="231" y="565" type="line" name="OEUWTYHE"/>
      <point x="235" y="630" name="GCPRBIWB"/>
      <point x="242" y="657" name="YLKZOPPB"/>
      <point x="254" y="680" type="curve" name="XYYNZDVX"/>
      <point x="57" y="680" type="line" name="ROAGIWYM"/>
      <point x="77" y="641" name="SAEOGGCP"/>
      <point x="84" y="589" name="FRRVLDRB"/>
      <point x="84" y="349" type="curve" smooth="yes" name="KHKHGAJW"/>
      <point x="84" y="95" name="COEVEATW"/>
      <point x="77" y="40" name="JJKCWEQR"/>
    </contour>
    <contour>
      <point x="421" y="339" type="curve" smooth="yes" name="XMDAZIAU"/>
      <point x="421" y="279" name="HYFKLYAG"/>
      <point x="383" y="240" name="MMHKZZFN"/>
      <point x="318" y="240" type="curve" smooth="yes" name="SXNDSKPS"/>
      <point x="228" y="240" type="line" name="LVCEUKFN"/>
      <point x="226" y="297" name="MYWCBMNT"/>
      <point x="227.0" y="380.44117647058823" name="KWFULJKD"/>
      <point x="227" y="440" type="curve" name="VGARYOXR"/>
      <point x="318" y="440" type="line" smooth="yes" name="FUZDKOXG"/>
      <point x="383" y="440" name="TIOULPAD"/>
      <point x="421" y="399" name="VFVTBIJP"/>
    </contour>
    <contour>
      <point x="156.0" y="618.0" type="move" name="HQEHAJOS"/>
      <point x="156.0" y="62.0" type="line" name="UQXBUTTQ"/>
    </contour>
    <contour>
      <point x="254.0" y="0.0" type="move" name="GZTAQTDC"/>
      <point x="156.0" y="62.0" type="line" name="BSXSTAWL"/>
      <point x="57" y="0" type="line" name="CJICGPNM"/>
    </contour>
    <contour>
      <point x="57.0" y="680.0" type="move" name="LFTGNCYU"/>
      <point x="156.0" y="618.0" type="line" name="VDZHMZNB"/>
      <point x="254.0" y="680.0" type="line" name="ERHQUYSQ"/>
    </contour>
    <contour>
      <point x="156.0" y="177.0" type="move" name="WDSCKCJO"/>
      <point x="317" y="177" type="line" smooth="yes" name="VVGZBLQG"/>
      <point x="428" y="177" name="CSOVNLCU"/>
      <point x="494" y="243" name="MGXXUPHU"/>
      <point x="494" y="340" type="curve" smooth="yes" name="FULSUMDG"/>
      <point x="494" y="437" name="WLSCMGWN"/>
      <point x="428" y="503" name="NEMYBFLD"/>
      <point x="317" y="503" type="curve" smooth="yes" name="GKQEDVPI"/>
      <point x="156.0" y="503.0" type="line" name="FSPABJHW"/>
    </contour>
    <contour>
      <point x="228.0" y="240.0" type="move" name="XEDMBOTE"/>
      <point x="156.0" y="177.0" type="line" name="VNVHKABN"/>
      <point x="231.0" y="115.0" type="line" name="HOEUMIDX"/>
    </contour>
    <contour>
      <point x="231.0" y="565.0" type="move" name="TXRLMBRZ"/>
      <point x="156.0" y="503.0" type="line" name="BQLWCUGI"/>
      <point x="227.0" y="440.0" type="line" name="GWJCSGHC"/>
    </contour>
  </outline>
</glyph>
<glyph name="divide" format="2">
  <advance width="540"/>
  <unicode hex="00F7"/>
  <outline>
    <contour>
      <point x="438.0" y="310.0" type="move" name="JOXGGLFQ"/>
      <point x="102.0" y="310.0" type="line" name="VIEZJCLD"/>
    </contour>
    <contour>
      <point x="40.0" y="247.0" type="move" name="VBDMNSEC"/>
      <point x="102.0" y="310.0" type="line" name="QPJIXPYD"/>
      <point x="40.0" y="374.0" type="line" name="UMKHDELL"/>
    </contour>
    <contour>
      <point x="500.0" y="374.0" type="move" name="KAIYGMHE"/>
      <point x="438.0" y="310.0" type="line" name="BKPOULTT"/>
      <point x="500.0" y="247.0" type="line" name="OGJVPXWV"/>
    </contour>
    <contour>
      <point x="40" y="247" type="line" name="CZUEJXUW"/>
      <point x="40" y="374" type="line" name="JWLTWQMI"/>
      <point x="500" y="374" type="line" name="GRBHNURC"/>
      <point x="500" y="247" type="line" name="FBJOTGUW"/>
    </contour>
    <contour>
      <point x="194.0" y="45.0" type="line" name="BDHPSTBF"/>
      <point x="345.0" y="45.0" type="line" name="DQAWNPEA"/>
      <point x="345.0" y="196.0" type="line" name="JOOHBDBA"/>
      <point x="194.0" y="196.0" type="line" name="QZBCQNAV"/>
    </contour>
    <contour>
      <point x="194.0" y="196.0" type="move" name="KQGWRPRS"/>
      <point x="269.0" y="121.0" type="line" name="LMYMNBDA"/>
      <point x="345.0" y="45.0" type="line" name="AKXMVJVB"/>
    </contour>
    <contour>
      <point x="194.0" y="45.0" type="move" name="PBMQSRWR"/>
      <point x="269.0" y="121.0" type="line" name="ZCZZPIFX"/>
      <point x="345.0" y="196.0" type="line" name="JTBASNNS"/>
    </contour>
    <contour>
      <point x="194.0" y="425.0" type="line" name="UCCNWTNA"/>
      <point x="345.0" y="425.0" type="line" name="LZEIGFPC"/>
      <point x="345.0" y="576.0" type="line" name="OTUAXSWG"/>
      <point x="194.0" y="576.0" type="line" name="AAVPSLKC"/>
    </contour>
    <contour>
      <point x="194.0" y="576.0" type="move" name="ASMEBPQP"/>
      <point x="269.0" y="501.0" type="line" name="NDZVQMDA"/>
      <point x="345.0" y="425.0" type="line" name="SSRCWBTC"/>
    </contour>
    <contour>
      <point x="194.0" y="425.0" type="move" name="ESERZDCK"/>
      <point x="269.0" y="501.0" type="line" name="NUGSHTGZ"/>
      <point x="345.0" y="576.0" type="line" name="AFUSJNNO"/>
    </contour>
  </outline>
</glyph>
<glyph name="ring" format="2">
  <advance width="420"/>
  <unicode hex="02DA"/>
  <anchor x="0" y="517" name="top"/>
  <anchor x="210" y="517" name="center"/>
  <outline>
    <contour>
      <point x="209" y="644" type="curve" smooth="yes"/>
      <point x="248.0" y="644.0"/>
      <point x="273.0" y="670"/>
      <point x="273" y="710.0" type="curve" smooth="yes"/>
      <point x="273.0" y="750"/>
      <point x="248.0" y="776.0"/>
      <point x="209" y="776" type="curve" smooth="yes"/>
      <point x="171.0" y="776.0"/>
      <point x="148.0" y="750"/>
      <point x="148.0" y="710.0" type="curve" smooth="yes"/>
      <point x="148.0" y="670"/>
      <point x="171.0" y="644.0"/>
    </contour>
    <contour>
      <point x="209" y="564" type="curve" smooth="yes"/>
      <point x="122" y="564"/>
      <point x="61" y="625.0"/>
      <point x="61" y="710" type="curve" smooth="yes"/>
      <point x="61" y="793.0"/>
      <point x="122" y="854"/>
      <point x="209" y="854" type="curve" smooth="yes"/>
      <point x="297" y="854"/>
      <point x="360" y="793.0"/>
      <point x="360" y="710" type="curve" smooth="yes"/>
      <point x="360" y="625.0"/>
      <point x="297" y="564"/>
    </contour>
  </outline>
</glyph>
<glyph name="endash" format="2">
  <advance width="555"/>
  <unicode hex="2013"/>
  <outline>
    <contour>
      <point x="65.0" y="256.0" type="line"/>
      <point x="490.0" y="256.0" type="line"/>
      <point x="490.0" y="381.0" type="line"/>
      <point x="65.0" y="381.0" type="line"/>
    </contour>
  </outline>
</glyph>
<glyph name="emdash" format="2">
  <advance width="805"/>
  <unicode hex="2014"/>
  <outline>
    <contour>
      <point x="65.0" y="256.0" type="line"/>
      <point x="740.0" y="256.0" type="line"/>
      <point x="740.0" y="381.0" type="line"/>
      <point x="65.0" y="381.0" type="line"/>
    </contour>
  </outline>
</glyph>
<glyph name="quoteleft" format="2">
  <advance width="274"/>
  <unicode hex="2018"/>
  <outline>
    <contour>
      <point x="214" y="399" type="curve" name="MZKVOMAA"/>
      <point x="47" y="399" type="line" name="TBNULAMN"/>
      <point x="37" y="510" name="EYJSSMTE"/>
      <point x="87" y="640" name="VXBTENTT"/>
      <point x="249" y="690" type="curve" name="RCTQPABE"/>
      <point x="191" y="571" name="AIUPBACH"/>
      <point x="190" y="488" name="ZWXBMSDA"/>
    </contour>
  </outline>
</glyph>
<glyph name="quoteright" format="2">
  <advance width="274"/>
  <unicode hex="2019"/>
  <outline>
    <contour>
      <point x="60" y="680" type="curve"/>
      <point x="227" y="680" type="line"/>
      <point x="237" y="569"/>
      <point x="187" y="439"/>
      <point x="25" y="389" type="curve"/>
      <point x="83" y="508"/>
      <point x="84" y="591"/>
    </contour>
  </outline>
</glyph>
<glyph name="quotedblright" format="2">
  <advance width="499"/>
  <unicode hex="201D"/>
  <outline>
    <contour>
      <point x="285" y="680" type="curve"/>
      <point x="452" y="680" type="line"/>
      <point x="462" y="569"/>
      <point x="412" y="439"/>
      <point x="250" y="389" type="curve"/>
      <point x="308" y="508"/>
      <point x="309" y="591"/>
    </contour>
    <contour>
      <point x="60" y="680" type="curve"/>
      <point x="227" y="680" type="line"/>
      <point x="237" y="569"/>
      <point x="187" y="439"/>
      <point x="25" y="389" type="curve"/>
      <point x="83" y="508"/>
      <point x="84" y="591"/>
    </contour>
  </outline>
</glyph>
<glyph name="fraction" format="2">
  <advance width="568"/>
  <unicode hex="2044"/>
  <outline>
    <contour>
      <point x="15" y="0" type="line"/>
      <point x="141" y="0" type="line"/>
      <point x="553" y="680" type="line"/>
      <point x="427" y="680" type="line"/>
    </contour>
  </outline>
</glyph>
<glyph name="minus" format="2">
  <advance width="490"/>
  <unicode hex="2212"/>
  <outline>
    <contour>
      <point x="40.0" y="247.0" type="line"/>
      <point x="450.0" y="247.0" type="line"/>
      <point x="450.0" y="374.0" type="line"/>
      <point x="40.0" y="374.0" type="line"/>
    </contour>
  </outline>
</glyph>
<glyph name="Q.alt" format="2">
  <advance width="740"/>
  <outline>
    <contour>
      <point x="370" y="115" type="curve" smooth="yes" name="NBKFUTTJ"/>
      <point x="478" y="115" name="IJBZOKUH"/>
      <point x="551" y="201" name="TDQPCPZD"/>
      <point x="551" y="341" type="curve" smooth="yes" name="JBUGKJKB"/>
      <point x="551" y="480" name="ZDLOEAIL"/>
      <point x="478" y="565" name="NUIBRTNU"/>
      <point x="370" y="565" type="curve" smooth="yes" name="QVHUWXLQ"/>
      <point x="262" y="565" name="BNZUFEZW"/>
      <point x="189" y="481" name="LYRCEVJF"/>
      <point x="189" y="341" type="curve" smooth="yes" name="ZTAQDYGJ"/>
      <point x="189" y="201" name="LZIEKJQB"/>
      <point x="262" y="115" name="KEOZEDQV"/>
    </contour>
    <contour>
      <point x="370" y="-12" type="curve" smooth="yes" name="KRJMMXSZ"/>
      <point x="177" y="-12" name="TCEDLVRI"/>
      <point x="37" y="135" name="YBHTZARJ"/>
      <point x="37" y="341" type="curve" smooth="yes" name="ZECVQGAZ"/>
      <point x="37" y="546" name="IGBUYSAR"/>
      <point x="177" y="692" name="PAUOSTHW"/>
      <point x="370" y="692" type="curve" smooth="yes" name="WCXPHGZY"/>
      <point x="562" y="692" name="ISHOEZWJ"/>
      <point x="703" y="546" name="LYKWCBYO"/>
      <point x="703" y="341" type="curve" smooth="yes" name="TFCQYSBA"/>
      <point x="703" y="135" name="KUJYJFSM"/>
      <point x="562" y="-12" name="AGXQEVWT"/>
    </contour>
    <contour>
      <point x="495" y="-64" type="line" name="DAGKGNJD"/>
      <point x="492" y="-25" name="DWDKLGIY"/>
      <point x="460" y="29" name="ZLEAPYQG"/>
      <point x="312" y="274" type="curve" name="JXIZXYMB"/>
      <point x="472" y="275" type="line" name="OFRSKXPE"/>
      <point x="475" y="236" name="CCGWUEKV"/>
      <point x="507" y="182" name="XKOECQIB"/>
      <point x="655" y="-63" type="curve" name="GNVFTFSF"/>
    </contour>
  </outline>
</glyph>
